<?xml version="1.0" encoding="UTF-8" standalone="no"?>
<svg
   id="Layer_1"
   data-name="Layer 1"
   viewBox="0 0 223.00001 94.296318"
   version="1.1"
   sodipodi:docname="ROS_Logo_RGB_Colour_AW_223.svg"
   width="223"
   height="94.296318"
   inkscape:version="1.3.2 (091e20e, 2023-11-25, custom)"
   xmlns:inkscape="http://www.inkscape.org/namespaces/inkscape"
   xmlns:sodipodi="http://sodipodi.sourceforge.net/DTD/sodipodi-0.dtd"
   xmlns="http://www.w3.org/2000/svg"
   xmlns:svg="http://www.w3.org/2000/svg"
   xmlns:rdf="http://www.w3.org/1999/02/22-rdf-syntax-ns#"
   xmlns:cc="http://creativecommons.org/ns#"
   xmlns:dc="http://purl.org/dc/elements/1.1/">
  <sodipodi:namedview
     id="namedview108"
     pagecolor="#ffffff"
     bordercolor="#000000"
     borderopacity="0.25"
     inkscape:showpageshadow="2"
     inkscape:pageopacity="0.0"
     inkscape:pagecheckerboard="0"
     inkscape:deskcolor="#d1d1d1"
     inkscape:zoom="1"
     inkscape:cx="-190.5"
     inkscape:cy="-79.5"
     inkscape:window-width="1920"
     inkscape:window-height="1009"
     inkscape:window-x="-8"
     inkscape:window-y="-8"
     inkscape:window-maximized="1"
     inkscape:current-layer="Layer_1" />
  <defs
     id="defs1">
    <style
       id="style1">.cls-1{fill:#1e3664;}.cls-2{fill:none;}.cls-3{fill:#008da3;}.cls-4{fill:#e6007e;}.cls-5{fill:#00b0e0;}.cls-6{fill:#e9530e;}</style>
  </defs>
  <title
     id="title1">ROS_Logo_RGB_Colour_AW</title>
  <path
     class="cls-1"
     d="m 158.70091,58.052801 a 1.2130311,1.2130311 0 0 0 0,-2.426061 h -3.66858 a 1.2088192,1.2088192 0 0 0 -1.21303,1.21304 1.1877596,1.1877596 0 0 0 1.21303,1.213021 h 0.24429 l -2.266,5.770328 -2.29128,-5.770328 h 0.26957 a 1.2130311,1.2130311 0 0 0 0,-2.426061 h -3.66017 a 1.2088192,1.2088192 0 0 0 -1.21302,1.21304 1.1877596,1.1877596 0 0 0 1.21302,1.213021 h 0.29484 l 3.88338,8.95453 c -0.88871,2.211258 -1.68476,3.584343 -3.42428,3.584343 a 1.3520244,1.3520244 0 1 0 0,2.699836 c 2.69562,0 4.42251,-1.886946 5.585,-4.532024 l 4.74262,-10.706685 z m -19.1642,-2.426061 h -0.62337 a 1.2130311,1.2130311 0 0 0 0,2.426061 h 0.62337 v 6.364202 c 0,2.131235 1.56261,3.668578 4.09819,3.668578 a 1.2635741,1.2635741 0 0 0 0,-2.527145 c -0.59388,0 -1.24251,-0.349595 -1.24251,-0.968742 v -6.528459 h 1.21302 a 1.2130357,1.2130357 0 1 0 0,-2.426071 h -1.21302 v -2.552418 a 1.42784,1.42784 0 1 0 -2.85568,0 z m -5.48392,4.725766 h -5.3407 c 0.13477,-1.726872 1.26357,-2.615602 2.83041,-2.615602 1.75215,0 2.52714,1.293063 2.52714,2.615602 m -2.26601,7.872078 c 2.45555,0 3.88339,-1.052986 4.34249,-1.482603 a 1.3478123,1.3478123 0 0 0 0.45488,-0.998218 1.2635741,1.2635741 0 0 0 -1.26357,-1.263577 1.4404745,1.4404745 0 0 0 -0.86345,0.299048 4.6331051,4.6331051 0 0 1 -2.67035,0.842375 c -1.78164,0 -3.15472,-0.888709 -3.15472,-2.830395 h 6.65903 c 1.64686,0 1.64686,-1.162494 1.64686,-2.156509 0,-1.861664 -0.84238,-5.370187 -5.39546,-5.370187 -3.66857,0 -5.82507,2.320766 -5.82507,6.448446 0,4.502529 2.32075,6.524247 6.06936,6.524247 m -8.14584,-15.39033 c 0,-1.238304 -0.61915,-1.777429 -1.75215,-1.777429 -1.133,0 -1.72689,0.539125 -1.72689,1.777429 a 1.5710438,1.5710438 0 0 0 1.72689,1.68476 c 1.133,0 1.75215,-0.648623 1.75215,-1.68476 m 0.42119,15.040745 a 1.2130311,1.2130311 0 0 0 0,-2.426062 h -0.64863 v -8.377495 a 1.3393886,1.3393886 0 0 0 -1.37308,-1.457329 h -2.1902 a 1.2088192,1.2088192 0 0 0 -1.21303,1.21304 1.1877596,1.1877596 0 0 0 1.21303,1.213021 h 0.64863 v 7.391915 h -0.64863 a 1.2088192,1.2088192 0 0 0 -1.21303,1.21303 1.1919716,1.1919716 0 0 0 1.21303,1.213031 z m -11.93656,0.349585 a 6.4484399,6.4484399 0 0 0 4.30878,-1.566828 1.3225409,1.3225409 0 0 0 0.45911,-0.998227 1.2635741,1.2635741 0 0 0 -1.29306,-1.293063 1.3309647,1.3309647 0 0 0 -0.81291,0.269572 4.2708804,4.2708804 0 0 1 -2.66613,1.07825 c -1.89115,0 -2.91464,-1.427845 -2.91464,-4.018173 0,-2.590318 1.02349,-3.988677 2.91464,-3.988677 a 3.1589353,3.1589353 0 0 1 2.39657,1.048764 1.3983553,1.3983553 0 0 0 0.99823,0.459103 1.3014813,1.3014813 0 0 0 0.99823,-2.131236 c -0.45911,-0.619137 -1.91221,-1.861653 -4.39303,-1.861653 -3.64331,0 -5.85456,2.076466 -5.85456,6.473699 0,4.397243 2.21125,6.498993 5.85456,6.498993 m -13.393889,-2.48082 c -1.941695,0 -2.948337,-1.347822 -2.948337,-3.988687 0,-2.640865 1.027703,-4.018163 2.948337,-4.018163 1.920639,0 2.948339,1.347812 2.948339,4.018163 0,2.67036 -1.02349,3.988687 -2.948339,3.988687 m 5.896689,-3.988687 c 0,-4.426719 -2.26602,-6.503185 -5.896689,-6.503185 -3.630668,0 -5.896674,2.076466 -5.896674,6.503185 0,4.426718 2.266006,6.469507 5.896674,6.469507 3.630669,0 5.896689,-2.076487 5.896689,-6.469507 M 89.414933,54.156783 a 1.4404745,1.4404745 0 0 0 1.453108,-1.427844 1.5415605,1.5415605 0 0 0 -0.269553,-0.863426 c -1.078259,-1.537352 -3.424288,-2.527165 -6.119912,-2.527165 -4.287735,0 -6.204157,2.266017 -6.204157,4.936377 0,6.498983 9.843249,4.692069 9.843249,8.630209 0,1.68476 -1.183555,2.48082 -3.639092,2.48082 a 6.1156987,6.1156987 0 0 1 -4.422516,-1.916432 1.5836795,1.5836795 0 0 0 -1.187758,-0.593884 1.4531103,1.4531103 0 0 0 -1.21303,2.211268 c 1.0235,1.64685 3.613819,3.154717 6.823304,3.154717 4.447779,0 6.768535,-2.046982 6.768535,-5.336489 0,-6.73907 -9.843239,-5.096422 -9.843239,-8.630209 0,-1.078259 0.842385,-2.131235 3.074704,-2.131235 a 5.5470904,5.5470904 0 0 1 3.790722,1.432046 1.7942753,1.7942753 0 0 0 1.162484,0.589672"
     id="path1"
     style="stroke-width:0.421191" />
  <path
     class="cls-1"
     d="m 220.37176,35.278988 a 1.4446864,1.4446864 0 0 0 0.91398,0.379074 1.314117,1.314117 0 0 0 1.29727,-1.293059 1.170912,1.170912 0 0 0 -0.26957,-0.808687 c -0.75814,-0.943469 -2.45553,-1.684766 -4.36775,-1.684766 -2.48082,0 -4.50675,1.183548 -4.50675,3.613821 0,4.58256 6.6085,3.449562 6.6085,5.635546 0,0.753929 -0.78342,1.07824 -1.99645,1.07824 a 4.4351451,4.4351451 0 0 1 -2.94834,-1.107735 1.2846337,1.2846337 0 0 0 -0.84238,-0.320099 1.314117,1.314117 0 0 0 -1.29305,1.293063 1.2635741,1.2635741 0 0 0 0.32431,0.842385 c 0.6739,0.842375 2.45554,1.891139 4.7721,1.891139 2.77986,0 4.93636,-1.297266 4.93636,-3.832835 0,-4.447789 -6.63377,-3.529584 -6.63377,-5.526029 0,-0.673912 0.59388,-1.0235 1.59211,-1.0235 a 3.9128678,3.9128678 0 0 1 2.42606,0.842382 m -19.63173,0 a 1.4446864,1.4446864 0 0 0 0.91399,0.379073 1.314117,1.314117 0 0 0 1.29726,-1.293057 1.170912,1.170912 0 0 0 -0.26956,-0.808689 c -0.75814,-0.943468 -2.45554,-1.684764 -4.36775,-1.684764 -2.48082,0 -4.50675,1.183548 -4.50675,3.613818 0,4.582571 6.60849,3.449562 6.60849,5.635547 0,0.753928 -0.78341,1.07825 -1.99644,1.07825 a 4.4351451,4.4351451 0 0 1 -2.94834,-1.107735 1.2846337,1.2846337 0 0 0 -0.84238,-0.320109 1.314117,1.314117 0 0 0 -1.29306,1.293063 1.2635741,1.2635741 0 0 0 0.32431,0.842384 c 0.67391,0.842375 2.45555,1.891139 4.77209,1.891139 2.77987,0 4.93638,-1.297265 4.93638,-3.832844 0,-4.447779 -6.63377,-3.529575 -6.63377,-5.526023 0,-0.673906 0.59388,-1.023495 1.59211,-1.023495 a 3.9128678,3.9128678 0 0 1 2.42606,0.842383 m -14.70801,7.092867 c -1.94169,0 -2.94834,-1.347822 -2.94834,-3.988687 0,-2.640865 1.02349,-4.018166 2.94834,-4.018166 1.92485,0 2.9694,1.347815 2.9694,4.018166 0,2.67035 -1.0277,3.988687 -2.9694,3.988687 m 5.89669,-3.988687 c 0,-4.422508 -2.26181,-6.498982 -5.89669,-6.498982 -3.63488,0 -5.89667,2.076474 -5.89667,6.498982 0,4.422506 2.266,6.469497 5.89667,6.469497 3.63067,0 5.89669,-2.076467 5.89669,-6.469497 m -16.33801,6.119913 a 1.213036,1.213036 0 0 0 0,-2.426072 h -0.64865 v -4.422506 c 0,-1.806904 1.05298,-2.994666 2.91044,-2.994666 a 1.3772958,1.3772958 0 1 0 0,-2.75038 3.369531,3.369531 0 0 0 -2.91044,1.726885 v -0.134782 a 1.2635741,1.2635741 0 0 0 -1.34781,-1.263573 h -2.21126 a 1.2088192,1.2088192 0 0 0 -1.21302,1.213031 1.1919716,1.1919716 0 0 0 1.21302,1.217242 h 0.64442 v 7.387698 h -0.64442 a 1.2088192,1.2088192 0 0 0 -1.21302,1.213031 1.1877596,1.1877596 0 0 0 1.21302,1.21303 z m -12.79159,-2.131226 c -1.9417,0 -2.9694,-1.347822 -2.9694,-3.988687 0,-2.640865 1.0277,-4.018166 2.9694,-4.018166 1.94169,0 2.94834,1.347815 2.94834,4.018166 0,2.67035 -1.02349,3.988687 -2.94834,3.988687 m 5.89667,-3.988687 c 0,-4.422508 -2.266,-6.498982 -5.89667,-6.498982 -3.63068,0 -5.89669,2.076474 -5.89669,6.498982 0,4.422506 2.26181,6.469497 5.89669,6.469497 3.63488,0 5.89667,-2.076467 5.89667,-6.469497 m -19.55169,3.988687 c -1.88694,0 -2.88517,-1.347822 -2.88517,-3.988687 0,-2.640865 0.99823,-4.018166 2.88517,-4.018166 1.88693,0 2.88515,1.347815 2.88515,4.018166 0,2.67035 -0.99822,3.988687 -2.88515,3.988687 m -6.36421,-10.108597 a 1.2172431,1.2172431 0 0 0 0,2.430274 h 0.64864 v 12.808433 h -0.64864 a 1.2130311,1.2130311 0 1 0 0,2.426051 h 4.63311 a 1.2130311,1.2130311 0 0 0 0,-2.426051 h -1.07825 v -3.790733 c 0.64864,0.728665 1.83639,1.158282 3.1842,1.158282 3.50432,0 5.4755,-2.105952 5.4755,-6.498983 0,-4.393024 -1.9417,-6.469497 -5.4755,-6.469497 a 3.9928942,3.9928942 0 0 0 -3.1842,1.617374 c 0,-0.808688 -0.64443,-1.263574 -1.45733,-1.263574 z m -8.33959,10.108597 c -1.94169,0 -2.9694,-1.347822 -2.9694,-3.988687 0,-2.640865 1.02771,-4.018166 2.9694,-4.018166 1.9417,0 2.94834,1.347815 2.94834,4.018166 0,2.67035 -1.02349,3.988687 -2.94834,3.988687 m 5.89668,-3.988687 c 0,-4.422508 -2.266,-6.498982 -5.89668,-6.498982 -3.63067,0 -5.89667,2.076474 -5.89667,6.498982 0,4.422506 2.266,6.469497 5.89667,6.469497 3.63068,0 5.89668,-2.076467 5.89668,-6.469497 m -16.50649,-1.402561 h -5.33649 c 0.13478,-1.726891 1.26357,-2.615605 2.8304,-2.615605 1.75216,0 2.50609,1.293057 2.50609,2.615605 m -2.2618,7.91418 c 2.45134,0 3.88338,-1.048773 4.34248,-1.482593 a 1.3478123,1.3478123 0 0 0 0.45489,-0.998227 1.2635741,1.2635741 0 0 0 -1.26357,-1.263577 1.4362626,1.4362626 0 0 0 -0.84239,0.299048 4.6331051,4.6331051 0 0 1 -2.67035,0.842385 c -1.78163,0 -3.15471,-0.88871 -3.15471,-2.830406 h 6.65902 c 1.64686,0 1.64686,-1.158271 1.64686,-2.156499 0,-1.861665 -0.84238,-5.365977 -5.39546,-5.365977 -3.66857,0 -5.82507,2.316552 -5.82507,6.444227 0,4.502528 2.32076,6.524256 6.06936,6.524256 m -18.22074,-9.573681 a 1.4446864,1.4446864 0 0 0 0.91399,0.379074 1.314117,1.314117 0 0 0 1.29728,-1.29306 1.170912,1.170912 0 0 0 -0.26957,-0.808687 c -0.75815,-0.943468 -2.45555,-1.684766 -4.36775,-1.684766 -2.480824,0 -4.506755,1.183548 -4.506755,3.613822 0,4.582571 6.608495,3.449552 6.608495,5.635547 0,0.753928 -0.78342,1.078249 -1.99645,1.078249 a 4.4351451,4.4351451 0 0 1 -2.948336,-1.107735 1.2846337,1.2846337 0 0 0 -0.842385,-0.320109 1.314117,1.314117 0 0 0 -1.293063,1.293063 1.2635741,1.2635741 0 0 0 0.324322,0.842375 c 0.673906,0.842385 2.451334,1.891149 4.772102,1.891149 2.77986,0 4.93636,-1.297265 4.93636,-3.832844 0,-4.44778 -6.633755,-3.529575 -6.633755,-5.526029 0,-0.673902 0.59388,-1.023492 1.592085,-1.023492 a 3.9128678,3.9128678 0 0 1 2.42607,0.842384 m -22.769603,0.164269 c 0,-4.477269 1.752155,-6.659041 5.311225,-6.659041 3.55907,0 5.315428,2.181772 5.315428,6.659041 0,4.477265 -1.756358,6.633754 -5.315428,6.633754 -3.55907,0 -5.311225,-2.185975 -5.311225,-6.633754 m -3.234749,0 c 0,6.317857 3.099958,9.438896 8.545974,9.438896 5.445997,0 8.550187,-3.129453 8.550187,-9.438896 0,-6.389478 -3.099978,-9.464175 -8.550187,-9.464175 -5.450219,0 -8.545974,3.074697 -8.545974,9.464175"
     id="path2"
     style="stroke-width:0.421191" />
  <path
     class="cls-1"
     d="m 138.87123,18.654565 h -0.89293 a 0.45909859,0.45909859 0 0 1 -0.4591,-0.484371 V 4.3340593 a 1.4152029,1.4152029 0 0 0 -1.37308,-1.4573228 h -2.18599 a 1.2088192,1.2088192 0 0 0 -1.21303,1.217243 1.1919716,1.1919716 0 0 0 1.21303,1.2130307 h 0.64864 V 17.900632 c 0,2.26601 1.32254,3.453769 3.42428,3.453769 h 0.84239 a 1.3520244,1.3520244 0 0 0 0,-2.699836 m -15.41561,-1.238303 c 0,-0.972952 0.64443,-1.537349 1.83218,-1.537349 h 3.15473 v 0.753933 c 0,1.512077 -1.32254,2.430275 -2.75038,2.430275 -1.51207,0 -2.23653,-0.623364 -2.23653,-1.646859 m 8.52071,3.71912 a 1.2130311,1.2130311 0 0 0 0,-2.426062 h -0.65706 v -5.690296 c 0,-2.855677 -1.99645,-4.5025355 -5.34071,-4.5025355 -2.31655,0 -3.66437,0.8887135 -4.42252,1.7268845 a 1.3478123,1.3478123 0 0 0 -0.34958,0.888714 1.2888456,1.2888456 0 0 0 2.07648,0.998224 4.4646286,4.4646286 0 0 1 2.69562,-1.023496 c 1.56684,0 2.45555,0.808688 2.45555,2.021719 v 0.471734 h -3.5338 c -2.34604,0 -4.36776,1.293058 -4.36776,3.790723 0,2.426062 1.75216,4.07292 4.39725,4.07292 1.61736,0 2.80513,-0.421191 3.52958,-1.566831 a 1.2635741,1.2635741 0 0 0 1.32254,1.21303 z m -13.2928,-9.813759 a 1.2130311,1.2130311 0 0 0 0,-2.4260613 h -3.66858 a 1.2088192,1.2088192 0 0 0 -1.21304,1.2130303 1.1919716,1.1919716 0 0 0 1.21304,1.213031 h 0.24429 l -2.26601,5.770322 -2.31234,-5.770322 h 0.26956 a 1.2130311,1.2130311 0 0 0 0,-2.4260613 h -3.63909 a 1.2088192,1.2088192 0 0 0 -1.21303,1.2130303 1.1919716,1.1919716 0 0 0 1.21303,1.213031 h 0.29905 l 3.88338,8.954529 c -0.89293,2.211254 -1.68477,3.584338 -3.42429,3.584338 a 1.3478125,1.3478125 0 1 0 0,2.695625 c 2.69562,0 4.42252,-1.886938 5.58079,-4.527807 l 4.74682,-10.706685 z m -19.054695,7.686742 c -1.94171,0 -2.948352,-1.347812 -2.948352,-3.992894 0,-2.645082 1.023491,-4.018165 2.948352,-4.018165 1.924845,0 2.948335,1.347812 2.948335,4.018165 0,2.670354 -1.02349,3.992894 -2.948335,3.992894 m 5.896675,-3.992894 c 0,-4.422509 -2.26602,-6.4989825 -5.896675,-6.4989825 -3.630672,0 -5.896689,2.0764735 -5.896689,6.4989825 0,4.42251 2.266017,6.473712 5.896689,6.473712 3.630655,0 5.896675,-2.076474 5.896675,-6.473712 M 85.935896,5.7913811 c 1.752155,0 2.48082,1.3772955 2.48082,2.8346173 0,1.4573226 -0.728665,2.8051356 -2.400798,2.8051356 H 82.376826 V 5.7913811 Z M 91.83257,21.135382 a 1.3772958,1.3772958 0 0 0 0,-2.75038 h -1.187757 l -3.125241,-4.393026 c 2.590328,-0.324317 4.152954,-2.805134 4.152954,-5.3659776 0,-3.0494248 -2.051204,-5.6355398 -5.690306,-5.6355398 h -7.160252 a 1.3772958,1.3772958 0 0 0 0,2.7503788 H 79.24317 V 18.376578 h -0.421202 a 1.3772958,1.3772958 0 0 0 0,2.75038 h 3.992899 a 1.3772958,1.3772958 0 0 0 0,-2.75038 h -0.421192 v -4.211912 h 1.756367 l 4.380394,6.406319 a 1.2383027,1.2383027 0 0 0 1.095089,0.564397 z"
     id="path3"
     style="stroke-width:0.421191" />
  <path
     class="cls-1"
     d="m 58.604779,87.136073 c 0,1.870078 -0.703382,2.779859 -2.160711,2.779859 -1.45732,0 -2.160702,-0.909781 -2.160702,-2.779859 0,-1.870088 0.707594,-2.763019 2.160702,-2.763019 1.453117,0 2.160711,0.905558 2.160711,2.763019 m -2.160711,-4.093982 c -2.324969,0 -3.605395,1.453107 -3.605395,4.093982 0,2.640865 1.263578,4.110822 3.605395,4.110822 2.341827,0 3.609616,-1.45732 3.609616,-4.110822 0,-2.653511 -1.263577,-4.093982 -3.609616,-4.093982"
     id="path4"
     style="stroke-width:0.421191" />
  <path
     class="cls-1"
     d="m 76.021048,86.340023 h -3.959201 c 0.15163,-1.263578 0.884507,-1.966969 2.076477,-1.966969 1.19197,0 1.827966,0.64443 1.882724,1.966969 m -1.882724,-3.297932 c -2.249158,0 -3.542221,1.491017 -3.542221,4.093982 0,3.399016 2.013293,4.110822 3.706488,4.110822 a 3.7907223,3.7907223 0 0 0 2.67035,-0.96453 0.69075385,0.69075385 0 0 0 0.235865,-0.513851 0.66548237,0.66548237 0 0 0 -0.665482,-0.665472 0.65705854,0.65705854 0 0 0 -0.421182,0.134771 2.779863,2.779863 0 0 1 -1.832198,0.66127 c -1.335175,0 -2.181762,-0.842385 -2.25336,-2.257583 h 4.54465 c 0.842385,0 0.842385,-0.774989 0.842385,-1.234092 0,-0.564398 -0.155842,-3.369539 -3.297932,-3.369539"
     id="path5"
     style="stroke-width:0.421191" />
  <path
     class="cls-1"
     d="m 69.248291,89.671643 h -0.488578 v -3.55907 c 0,-2.038567 -1.069825,-3.070482 -3.184212,-3.070482 a 2.7756511,2.7756511 0 0 0 -1.979606,0.75814 0.67811811,0.67811811 0 0 0 -0.669683,-0.5307 H 61.69212 a 0.6823327,0.6823327 0 0 0 0,1.364661 h 0.488578 v 5.054299 H 61.69212 a 0.6823327,0.6823327 0 0 0 0,1.364661 h 2.405 a 0.6823327,0.6823327 0 1 0 0,-1.364661 h -0.488578 v -3.234748 c 0,-0.77499 0.256926,-2.080689 1.966959,-2.080689 1.45732,0 1.756368,0.787626 1.756368,1.966969 v 3.36953 h -0.488578 a 0.68233003,0.68233003 0 0 0 0,1.36465 h 2.405 a 0.68233003,0.68233003 0 1 0 0,-1.36465"
     id="path6"
     style="stroke-width:0.421191" />
  <path
     class="cls-1"
     d="m 15.2347,86.340023 h -3.950757 c 0.15162,-1.263578 0.880275,-1.966969 2.076467,-1.966969 1.196182,0 1.827966,0.64443 1.878512,1.966969 M 13.36041,83.042091 c -2.25338,0 -3.542221,1.491017 -3.542221,4.093982 0,3.399016 2.013294,4.110822 3.706488,4.110822 a 3.7907223,3.7907223 0 0 0 2.67034,-0.96453 0.69075385,0.69075385 0 0 0 0.235875,-0.513851 0.66548237,0.66548237 0 0 0 -0.665482,-0.665472 0.65705854,0.65705854 0 0 0 -0.421192,0.134771 2.7882869,2.7882869 0 0 1 -1.832178,0.66127 c -1.335175,0 -2.185984,-0.842385 -2.257592,-2.257583 h 4.553085 c 0.842385,0 0.842385,-0.774989 0.842385,-1.234092 0,-0.564398 -0.160055,-3.369539 -3.297942,-3.369539"
     id="path7"
     style="stroke-width:0.421191" />
  <path
     class="cls-1"
     d="M 90.257318,89.671643 H 89.76874 v -3.55907 c 0,-2.038567 -1.069825,-3.070482 -3.184212,-3.070482 a 2.8009226,2.8009226 0 0 0 -1.966969,0.741291 v -3.213687 a 0.67390619,0.67390619 0 0 0 -0.68232,-0.635996 h -1.200404 a 0.6823327,0.6823327 0 1 0 0,1.364661 h 0.45489 v 8.394344 h -0.488588 a 0.68233003,0.68233003 0 1 0 0,1.364651 h 2.40501 a 0.68233003,0.68233003 0 0 0 0,-1.364651 h -0.488588 v -3.234749 c 0,-0.774999 0.256936,-2.080689 1.966969,-2.080689 1.45732,0 1.756368,0.787626 1.756368,1.966959 v 3.36954 h -0.488578 a 0.6823305,0.6823305 0 1 0 0,1.364661 h 2.405 a 0.6823305,0.6823305 0 1 0 0,-1.364661"
     id="path8"
     style="stroke-width:0.421191" />
  <path
     class="cls-1"
     d="M 32.427742,86.340023 H 28.46854 c 0.151631,-1.263578 0.884498,-1.966969 2.076477,-1.966969 1.19197,0 1.827976,0.64443 1.882725,1.966969 m -1.882725,-3.297932 c -2.249168,0 -3.542221,1.491017 -3.542221,4.093982 0,3.399016 2.017506,4.110822 3.706478,4.110822 a 3.7907223,3.7907223 0 0 0 2.670361,-0.96453 0.67811811,0.67811811 0 0 0 0.235864,-0.513851 0.66548237,0.66548237 0 0 0 -0.665481,-0.665472 0.65705854,0.65705854 0 0 0 -0.421193,0.134771 2.779863,2.779863 0 0 1 -1.832178,0.66127 c -1.335175,0 -2.181772,-0.842385 -2.25338,-2.257583 h 4.544661 c 0.842375,0 0.842375,-0.774989 0.842375,-1.234092 0,-0.564398 -0.155833,-3.369539 -3.297922,-3.369539"
     id="path9"
     style="stroke-width:0.421191" />
  <path
     class="cls-1"
     d="m 20.7818,89.802212 a 0.80447552,0.80447552 0 0 1 -0.876073,-0.880295 v -4.287725 h 0.842375 a 0.6823327,0.6823327 0 0 0 0,-1.364661 h -0.842375 v -1.512079 a 0.72023724,0.72023724 0 0 0 -0.716028,-0.716028 0.7370849,0.7370849 0 0 0 -0.716028,0.716028 v 1.512079 h -0.450668 a 0.6823327,0.6823327 0 0 0 0,1.364661 h 0.421182 v 4.287725 c 0,1.36466 0.905569,2.244955 2.30814,2.244955 a 0.68233003,0.68233003 0 0 0 0.699169,-0.68233 0.69075385,0.69075385 0 0 0 -0.699169,-0.68233"
     id="path10"
     style="stroke-width:0.421191" />
  <path
     class="cls-1"
     d="m 39.385817,83.042091 a 2.7082605,2.7082605 0 0 0 -2.068042,0.867658 0.69075385,0.69075385 0 0 0 -0.711816,-0.640218 h -1.200394 a 0.6823327,0.6823327 0 0 0 0,1.364661 h 0.484376 v 5.054299 h -0.484376 a 0.6823327,0.6823327 0 0 0 0,1.364661 h 3.133655 a 0.6823327,0.6823327 0 1 0 0,-1.364661 h -1.217233 v -2.85989 c 0,-1.486806 0.770777,-2.371303 2.06383,-2.371303 a 0.69918054,0.69918054 0 0 0 0,-1.398358"
     id="path11"
     style="stroke-width:0.421191" />
  <path
     class="cls-1"
     d="m 2.5989661,84.486774 v -3.36953 h 2.0006667 c 1.3351653,0 2.0132835,0.56861 2.0132835,1.68477 0,1.11615 -0.7328671,1.68476 -2.0132835,1.68476 z m 4.5193871,3.243183 c 0,1.263567 -0.7033915,1.916412 -2.0343545,1.916412 H 2.5989661 v -3.815986 h 2.4850326 c 1.293053,0 2.0343545,0.690745 2.0343545,1.899574 M 6.9035497,84.992201 a 2.5271483,2.5271483 0 0 0 1.2214552,-2.185975 c 0,-1.98802 -1.2635774,-3.087341 -3.5127454,-3.087341 H 0.69939266 A 0.69075385,0.69075385 0 0 0 2.1336376e-4,80.418065 0.68233003,0.68233003 0 0 0 0.69939266,81.117244 H 1.1205852 v 8.529125 H 0.69939266 A 0.69075385,0.69075385 0 0 0 2.1336376e-4,90.345549 0.68233003,0.68233003 0 0 0 0.69939266,91.044728 H 5.1008476 c 2.1775602,0 3.5253622,-1.263578 3.5253622,-3.314771 A 2.7756511,2.7756511 0 0 0 6.9035497,84.992201"
     id="path12"
     style="stroke-width:0.421191" />
  <path
     class="cls-1"
     d="m 50.303104,87.136073 c 0,1.870078 -0.686543,2.779859 -2.105963,2.779859 a 1.8658778,1.8658778 0 0 1 -1.945897,-1.95012 V 85.65347 a 2.2196786,2.2196786 0 0 1 1.945897,-1.263567 c 1.410996,0 2.105963,0.905558 2.105963,2.763019 M 48.272961,83.05894 a 3.0452136,3.0452136 0 0 0 -2.013303,0.749716 v -3.196839 a 0.65705854,0.65705854 0 0 0 -0.652835,-0.68233 h -1.234102 a 0.68233041,0.68233041 0 0 0 0,1.36466 h 0.454891 v 9.173546 a 0.69943552,0.69943552 0 0 0 1.398358,0.03786 3.0073063,3.0073063 0 0 0 2.030152,0.741301 c 2.240734,0 3.479028,-1.45733 3.479028,-4.110831 0,-3.36954 -1.882724,-4.093983 -3.462189,-4.093983"
     id="path13"
     style="stroke-width:0.421191" />
  <path
     class="cls-1"
     d="M 25.444393,89.802212 A 0.80447552,0.80447552 0 0 1 24.56831,88.921917 v -4.287725 h 0.842385 a 0.6823327,0.6823327 0 1 0 0,-1.364661 H 24.56831 v -1.512079 a 0.72023724,0.72023724 0 0 0 -0.716028,-0.716028 0.7370849,0.7370849 0 0 0 -0.716028,0.716028 v 1.512079 h -0.421183 a 0.6823327,0.6823327 0 1 0 0,1.364661 h 0.421183 v 4.287725 c 0,1.36466 0.905568,2.244955 2.308139,2.244955 a 0.6823327,0.6823327 0 1 0 0,-1.36466"
     id="path14"
     style="stroke-width:0.421191" />
  <path
     class="cls-1"
     d="m 180.40069,83.042091 a 2.7082605,2.7082605 0 0 0 -2.06805,0.867658 0.69075385,0.69075385 0 0 0 -0.71181,-0.640218 h -1.2004 a 0.6823327,0.6823327 0 0 0 0,1.364661 h 0.48438 v 5.054299 h -0.48438 a 0.6823327,0.6823327 0 1 0 0,1.364661 h 3.13367 a 0.6823327,0.6823327 0 1 0 0,-1.364661 h -1.21725 v -2.85989 c 0,-1.486806 0.77078,-2.371303 2.06384,-2.371303 a 0.69918054,0.69918054 0 1 0 0,-1.398358"
     id="path15"
     style="stroke-width:0.421191" />
  <path
     class="cls-1"
     d="m 189.17411,83.269531 h -1.93327 a 0.6823327,0.6823327 0 0 0 0,1.364661 h 0.22745 l -1.68477,4.131892 -1.68477,-4.131892 h 0.11373 a 0.6823327,0.6823327 0 0 0 0,-1.364661 h -1.92485 a 0.6823327,0.6823327 0 0 0 0,1.364661 h 0.27799 l 2.46818,5.896674 c -0.64863,1.600526 -0.98138,2.400799 -2.24074,2.400799 a 0.68233003,0.68233003 0 1 0 0,1.36465 c 1.53735,0 2.46818,-0.728654 3.21791,-2.527144 l 3.00308,-7.160253 h 0.16427 a 0.68233041,0.68233041 0 0 0 0,-1.36466"
     id="path16"
     style="stroke-width:0.421191" />
  <path
     class="cls-1"
     d="m 173.44261,86.340023 h -3.95919 c 0.15163,-1.263578 0.88449,-1.966969 2.07646,-1.966969 1.19198,0 1.82797,0.64443 1.88273,1.966969 m -1.88273,-3.297932 c -2.24915,0 -3.54222,1.491017 -3.54222,4.093982 0,3.399016 2.01751,4.110822 3.70649,4.110822 a 3.7907223,3.7907223 0 0 0 2.67036,-0.96453 0.67095202,0.67095202 0 0 0 -0.84238,-1.044552 2.779863,2.779863 0 0 1 -1.83219,0.66127 c -1.33096,0 -2.18177,-0.842385 -2.25337,-2.257583 h 4.54465 c 0.84238,0 0.84238,-0.774989 0.84238,-1.234092 0,-0.564398 -0.15584,-3.369539 -3.29793,-3.369539"
     id="path17"
     style="stroke-width:0.421191" />
  <path
     class="cls-1"
     d="m 194.03044,84.360417 c 1.411,0 2.10597,0.905568 2.10597,2.76301 0,1.857461 -0.68655,2.779868 -2.10597,2.779868 a 1.8700897,1.8700897 0 0 1 -1.9459,-1.95011 v -2.312342 a 2.2196786,2.2196786 0 0 1 1.9459,-1.263577 m 0.0674,-1.330963 a 3.0536375,3.0536375 0 0 0 -2.0133,0.749726 V 80.59918 a 0.65705854,0.65705854 0 0 0 -0.65284,-0.68233 h -1.2341 a 0.6823327,0.6823327 0 1 0 0,1.364661 h 0.4549 v 9.186182 a 0.69943453,0.69943453 0 0 0 1.39835,0.03786 3.0073063,3.0073063 0 0 0 2.03014,0.741301 c 2.24074,0 3.47904,-1.45733 3.47904,-4.110831 0,-3.36954 -1.88273,-4.093983 -3.46219,-4.093983"
     id="path18"
     style="stroke-width:0.421191" />
  <path
     class="cls-1"
     d="m 97.030066,86.340023 h -3.959192 c 0.151631,-1.263578 0.884508,-1.966969 2.076467,-1.966969 1.19198,0 1.827976,0.64443 1.882725,1.966969 m -1.882725,-3.297932 c -2.249158,0 -3.542211,1.491017 -3.542211,4.093982 0,3.399016 2.013294,4.110822 3.706478,4.110822 a 3.7907223,3.7907223 0 0 0 2.670361,-0.96453 0.69075385,0.69075385 0 0 0 0.235864,-0.513851 0.66548237,0.66548237 0 0 0 -0.665481,-0.665472 0.65705854,0.65705854 0 0 0 -0.421193,0.134771 2.7882869,2.7882869 0 0 1 -1.832188,0.66127 c -1.335175,0 -2.181762,-0.842385 -2.25336,-2.257583 h 4.544651 c 0.842385,0 0.842385,-0.774989 0.842385,-1.234092 0,-0.564398 -0.160065,-3.369539 -3.297932,-3.369539"
     id="path19"
     style="stroke-width:0.421191" />
  <path
     class="cls-1"
     d="m 222.30082,83.269531 h -1.93328 a 0.6823327,0.6823327 0 1 0 0,1.364661 h 0.24851 l -1.68476,4.131892 -1.68477,-4.131892 h 0.11793 a 0.6823327,0.6823327 0 0 0 0,-1.364661 h -1.93326 a 0.6823327,0.6823327 0 1 0 0,1.364661 h 0.27797 l 2.46819,5.896674 c -0.64863,1.600526 -0.98138,2.400799 -2.24074,2.400799 a 0.68233003,0.68233003 0 0 0 0,1.36465 c 1.53313,0 2.46819,-0.728654 3.21789,-2.527144 l 3.00311,-7.160253 h 0.14321 a 0.68233041,0.68233041 0 0 0 0,-1.36466"
     id="path20"
     style="stroke-width:0.421191" />
  <path
     class="cls-1"
     d="m 166.94784,83.269531 h -1.92905 a 0.6823327,0.6823327 0 0 0 0,1.364661 h 0.1811 l -1.68476,4.131892 -1.68477,-4.131892 h 0.16427 a 0.6823327,0.6823327 0 0 0 0,-1.364661 h -1.93327 a 0.6823327,0.6823327 0 0 0 0,1.364661 h 0.22745 l 2.54821,6.082002 a 0.69496576,0.69496576 0 0 0 0.66969,0.450678 0.71181342,0.71181342 0 0 0 0.66969,-0.446465 l 2.56927,-6.086215 h 0.2106 a 0.6823327,0.6823327 0 0 0 0,-1.364661"
     id="path21"
     style="stroke-width:0.421191" />
  <path
     class="cls-1"
     d="m 212.45758,85.65347 v 2.312342 a 1.8700897,1.8700897 0 0 1 -1.95012,1.95012 c -1.411,0 -2.10597,-0.909781 -2.10597,-2.779859 0,-1.870088 0.68655,-2.763019 2.10597,-2.763019 a 2.2196786,2.2196786 0 0 1 1.95012,1.263567 m 1.89957,4.018173 h -0.48016 v -9.026138 a 0.70760151,0.70760151 0 0 0 -0.71182,-0.716018 h -1.20461 a 0.6823305,0.6823305 0 0 0 0,1.364661 h 0.48858 v 2.527144 a 3.0536375,3.0536375 0 0 0 -2.01329,-0.749726 c -1.57948,0 -3.4622,0.711816 -3.4622,4.093993 0,2.653502 1.2341,4.110821 3.47905,4.110821 a 3.0030945,3.0030945 0 0 0 2.04278,-0.753928 0.66969427,0.66969427 0 0 0 0.66969,0.543337 h 1.18355 a 0.6823355,0.6823355 0 1 0 0,-1.364671"
     id="path22"
     style="stroke-width:0.421191" />
  <path
     class="cls-1"
     d="m 204.42966,87.136073 c 0,1.870078 -0.7076,2.779859 -2.16071,2.779859 -1.45311,0 -2.16071,-0.909781 -2.16071,-2.779859 0,-1.870088 0.71182,-2.775656 2.16071,-2.775656 1.44889,0 2.16071,0.905568 2.16071,2.76301 m -2.16071,-4.093973 c -2.32497,0 -3.6054,1.453108 -3.6054,4.093973 0,2.640884 1.26358,4.110841 3.6054,4.110841 2.34182,0 3.60961,-1.45733 3.60961,-4.110841 0,-2.653502 -1.26358,-4.093973 -3.60961,-4.093973"
     id="path23"
     style="stroke-width:0.421191" />
  <path
     class="cls-1"
     d="m 157.61846,86.340023 h -3.97184 c 0.15163,-1.263578 0.8845,-1.966969 2.07647,-1.966969 1.19197,0 1.82797,0.64443 1.88272,1.966969 m -1.85324,-3.297932 c -2.24915,0 -3.54222,1.491017 -3.54222,4.093982 0,3.399016 2.0133,4.110822 3.70649,4.110822 a 3.7907223,3.7907223 0 0 0 2.67035,-0.96453 0.67811811,0.67811811 0 0 0 0.23588,-0.513851 0.66548237,0.66548237 0 0 0 -0.6655,-0.665472 0.65705854,0.65705854 0 0 0 -0.42119,0.134771 2.7882869,2.7882869 0 0 1 -1.83218,0.66127 c -1.33517,0 -2.18177,-0.842385 -2.25337,-2.257583 h 4.54465 c 0.84239,0 0.84239,-0.774989 0.84239,-1.234092 0,-0.564398 -0.16006,-3.369539 -3.29793,-3.369539"
     id="path24"
     style="stroke-width:0.421191" />
  <path
     class="cls-1"
     d="m 124.31064,89.671643 h -0.48437 v -3.55907 c 0,-2.038567 -1.07404,-3.070482 -3.1842,-3.070482 a 2.784075,2.784075 0 0 0 -1.96697,0.741291 v -3.213687 a 0.67811811,0.67811811 0 0 0 -0.68233,-0.635996 h -1.20461 a 0.6823327,0.6823327 0 0 0 0,1.364661 h 0.45488 v 8.394344 h -0.48436 a 0.68233003,0.68233003 0 0 0 0,1.364651 h 2.405 a 0.68233003,0.68233003 0 1 0 0,-1.364651 h -0.47594 v -3.234749 c 0,-0.774999 0.25271,-2.080689 1.96695,-2.080689 1.45311,0 1.75216,0.787626 1.75216,1.966959 v 3.36954 h -0.48858 a 0.6823305,0.6823305 0 0 0 0,1.364661 h 2.405 a 0.6823305,0.6823305 0 1 0 0,-1.364661"
     id="path25"
     style="stroke-width:0.421191" />
  <path
     class="cls-1"
     d="m 114.79172,89.802212 a 0.80447552,0.80447552 0 0 1 -0.87609,-0.880295 v -4.287725 h 0.84239 a 0.6823327,0.6823327 0 0 0 0,-1.364661 h -0.84239 v -1.512079 a 0.72023724,0.72023724 0 0 0 -0.71602,-0.716028 0.7370849,0.7370849 0 0 0 -0.71603,0.716028 v 1.512079 h -0.42118 a 0.6823327,0.6823327 0 0 0 0,1.364661 h 0.42118 v 4.287725 c 0,1.36466 0.90557,2.244955 2.30814,2.244955 a 0.6823327,0.6823327 0 1 0 0,-1.36466"
     id="path26"
     style="stroke-width:0.421191" />
  <path
     class="cls-1"
     d="m 104.45568,87.544629 v 0.484376 c 0,1.301477 -1.01928,1.886927 -2.03014,1.886927 -1.09931,0 -1.65529,-0.400122 -1.65529,-1.187758 0,-1.031915 0.99823,-1.183545 1.59211,-1.183545 z m 1.88693,2.127014 h -0.48857 v -3.67279 c 0,-1.823754 -1.19619,-2.948338 -3.11682,-2.948338 -1.73109,0 -2.52715,0.842385 -2.868305,1.377288 a 0.71181342,0.71181342 0 0 0 -0.1053,0.37907 0.66548237,0.66548237 0 0 0 0.665475,0.665491 0.72023724,0.72023724 0 0 0 0.5686,-0.294835 2.0469901,2.0469901 0 0 1 1.73953,-0.762353 c 1.07825,0 1.71846,0.593874 1.71846,1.592101 v 0.244289 h -2.10595 c -1.87431,0 -3.041005,0.951893 -3.041005,2.485033 0,1.533139 1.124575,2.527145 3.007305,2.527145 a 3.2010544,3.2010544 0 0 0 2.21126,-0.791839 0.58966792,0.58966792 0 0 0 0.5686,0.581247 h 1.23409 a 0.6823327,0.6823327 0 1 0 0,-1.364661"
     id="path27"
     style="stroke-width:0.421191" />
  <path
     class="cls-1"
     d="m 110.41975,89.802212 h -0.42119 c -0.11794,0 -0.39171,0 -0.39171,-0.732868 v -8.474376 a 0.67390619,0.67390619 0 0 0 -0.68233,-0.68233 h -1.23409 a 0.6823305,0.6823305 0 0 0 0,1.364661 h 0.48858 v 7.792045 c 0,1.314115 0.66127,2.105953 1.76901,2.105953 h 0.45488 a 0.6823305,0.6823305 0 0 0 0,-1.364661"
     id="path28"
     style="stroke-width:0.421191" />
  <path
     class="cls-1"
     d="m 133.64002,79.912638 h -0.42118 c -1.89536,0 -2.74617,1.499442 -2.74617,2.990459 v 0.366434 h -0.35801 a 0.6823327,0.6823327 0 0 0 0,1.364661 h 0.36644 v 5.054299 h -0.48438 a 0.6823327,0.6823327 0 0 0 0,1.364661 h 2.77566 a 0.6823327,0.6823327 0 1 0 0,-1.364661 h -0.84239 v -5.054299 h 1.26357 a 0.6823327,0.6823327 0 1 0 0,-1.364661 h -1.26357 v -0.366434 c 0,-1.078249 0.46332,-1.625798 1.38151,-1.625798 h 0.34117 a 0.6823305,0.6823305 0 0 0 0,-1.364661"
     id="path29"
     style="stroke-width:0.421191" />
  <path
     class="cls-1"
     d="m 147.28663,83.042091 a 2.7082605,2.7082605 0 0 0 -2.06805,0.867658 0.68654193,0.68654193 0 0 0 -0.71182,-0.640218 h -1.20039 a 0.6823327,0.6823327 0 0 0 0,1.364661 h 0.48858 v 5.054299 h -0.48858 a 0.6823327,0.6823327 0 1 0 0,1.364661 h 3.13366 a 0.6823327,0.6823327 0 1 0 0,-1.364661 h -1.21724 v -2.85989 c 0,-1.486806 0.77078,-2.371303 2.06384,-2.371303 a 0.69918054,0.69918054 0 1 0 0,-1.398358"
     id="path30"
     style="stroke-width:0.421191" />
  <path
     class="cls-1"
     d="m 140.21904,87.136073 c 0,1.870078 -0.7076,2.779859 -2.16071,2.779859 -1.45311,0 -2.16071,-0.909781 -2.16071,-2.779859 0,-1.870088 0.7076,-2.775656 2.16492,-2.775656 1.45732,0 2.16071,0.905568 2.16071,2.76301 m -2.16071,-4.081336 c -2.32499,0 -3.60962,1.453107 -3.60962,4.093982 0,2.640865 1.28463,4.110822 3.60962,4.110822 2.32497,0 3.60539,-1.45732 3.60539,-4.110822 0,-2.653511 -1.26357,-4.093982 -3.60539,-4.093982"
     id="path31"
     style="stroke-width:0.421191" />
  <path
     class="cls-2"
     d="m 6.9667232,48.365404 a 8.9671643,8.9671643 0 0 0 0.2316623,-4.081346 16.961377,16.961377 0 0 0 -2.2154702,4.633107 11.098392,11.098392 0 0 0 1.4573198,0.817112 6.8949027,6.8949027 0 0 0 0.5264881,-1.368873 z"
     id="path32"
     style="stroke-width:0.421191" />
  <path
     class="cls-2"
     d="M 40.674668,8.0405421 A 16.426464,16.426464 0 0 0 42.629,7.4887817 6.5200425,6.5200425 0 0 0 38.838268,5.7703219 5.7955933,5.7955933 0 0 0 34.664273,7.0549545 c 0.796051,1.255151 3.289498,1.5794683 6.010395,0.9855876 z"
     id="path33"
     style="stroke-width:0.421191" />
  <path
     class="cls-2"
     d="m 42.801691,59.227932 a 14.122547,14.122547 0 0 0 6.545308,-0.421193 c 0.842385,-3.908654 -0.282199,-5.618688 -2.379727,-6.19152 a 5.6945073,5.6945073 0 0 0 -4.119256,0.286421 c -0.105296,0.631784 -0.185328,1.284629 -0.231652,1.954322 a 18.431335,18.431335 0 0 0 0.185327,4.37197 z"
     id="path34"
     style="stroke-width:0.421191" />
  <path
     class="cls-2"
     d="m 15.222073,55.748894 a 14.964929,14.964929 0 0 0 -2.527144,-0.842385 c 1.802692,3.243163 4.211904,5.029017 6.515831,5.820855 0.231653,-0.315877 0.450678,-0.644421 0.657057,-0.989793 a 9.8516659,9.8516659 0 0 0 -4.645744,-3.988677 z"
     id="path35"
     style="stroke-width:0.421191" />
  <path
     class="cls-2"
     d="M 14.653473,14.324718 A 17.075098,17.075098 0 0 0 12.7539,15.676742 c -2.434496,2.021719 -4.0350213,4.468841 -4.4477893,6.924386 2.6155913,-0.833959 5.1343213,-3.988682 6.3473623,-8.27641 z"
     id="path36"
     style="stroke-width:0.421191" />
  <path
     class="cls-2"
     d="M 16.986866,63.182921 A 11.586974,11.586974 0 0 0 14.560804,60.310393 C 12.454852,58.431871 9.986668,57.648467 8.0786606,58.364486 a 2.8177703,2.8177703 0 0 0 -1.5078566,1.385722 25.570529,25.570529 0 0 0 2.805132,3.20105 18.477665,18.477665 0 0 0 7.61093,0.231663 z"
     id="path37"
     style="stroke-width:0.421191" />
  <path
     class="cls-2"
     d="M 6.7813953,30.468983 A 6.1957251,6.1957251 0 0 0 6.4233862,28.030285 C 6.288605,27.962889 6.1622482,27.891291 6.0021937,27.832325 5.8421491,27.773364 5.5810111,27.668059 5.3661977,27.596457 a 5.8166527,5.8166527 0 0 0 -1.7268822,3.706484 5.6860835,5.6860835 0 0 0 0.9813784,3.790724 c 1.2130208,-0.892927 1.9711613,-2.371309 2.1607014,-4.624682 z"
     id="path38"
     style="stroke-width:0.421191" />
  <path
     class="cls-2"
     d="m 52.708104,57.277812 a 14.072004,14.072004 0 0 0 5.673447,-6.878053 c 0.08841,-0.214814 0.164267,-0.421193 0.244289,-0.648633 -0.311675,-0.160055 -0.635986,-0.311685 -0.968732,-0.450678 -2.25338,1.364661 -4.039233,4.05187 -4.949004,7.977364 z"
     id="path39"
     style="stroke-width:0.421191" />
  <path
     class="cls-2"
     d="m 11.035432,51.056826 c 4.443567,0.732867 7.349792,-0.459113 7.918393,-3.226335 0.475951,-2.308129 -1.326741,-5.168019 -5.142737,-6.625339 a 15.584081,15.584081 0 0 0 -2.872537,0.842385 c -1.031915,2.030142 -1.221455,5.104836 0.09683,9.009289 z"
     id="path40"
     style="stroke-width:0.421191" />
  <path
     class="cls-2"
     d="m 6.869852,18.385002 a 16.199021,16.199021 0 0 0 3.327407,-3.651728 C 11.987325,11.966046 11.549283,9.1356396 9.868726,7.8467948 A 25.819031,25.819031 0 0 0 7.5521725,10.277068 16.721297,16.721297 0 0 0 6.869852,18.385002 Z"
     id="path41"
     style="stroke-width:0.421191" />
  <path
     class="cls-2"
     d="m 26.02564,63.326116 a 5.1469585,5.1469585 0 0 0 -0.109518,1.469957 5.8966792,5.8966792 0 0 0 1.604738,0.652855 c 2.463971,0.60651 4.367757,0.349594 5.77454,-0.758141 -1.141433,-1.945918 -4.397243,-2.042789 -7.26976,-1.364671 z"
     id="path42"
     style="stroke-width:0.421191" />
  <path
     class="cls-2"
     d="m 48.045511,62.930197 a 6.1746655,6.1746655 0 0 0 -4.211904,-0.282199 10.702472,10.702472 0 0 0 1.587888,2.480821 c 0.497003,0.109508 1.006642,0.210591 1.537352,0.290623 0.282199,-0.589671 0.560176,-1.208818 0.842375,-1.870088 0.08841,-0.214803 0.160055,-0.412768 0.244289,-0.619157 z"
     id="path43"
     style="stroke-width:0.421191" />
  <path
     class="cls-2"
     d="m 27.289208,52.594158 a 8.5754563,8.5754563 0 0 0 -3.849694,5.168029 11.279505,11.279505 0 0 0 -0.358009,2.906216 l 0.07998,-0.05897 a 11.51116,11.51116 0 0 0 4.12768,-8.015284 z"
     id="path44"
     style="stroke-width:0.421191" />
  <path
     class="cls-2"
     d="m 57.353848,20.217186 c -5.374409,-1.128794 -7.981576,-0.214809 -8.588086,2.527147 -0.366444,1.684765 0.160044,3.643305 1.76057,5.28174 a 12.669436,12.669436 0 0 0 6.920175,-2.569268 13.857197,13.857197 0 0 0 -0.09267,-5.239619 z"
     id="path45"
     style="stroke-width:0.421191" />
  <path
     class="cls-2"
     d="m 52.893432,42.485568 a 6.8696312,6.8696312 0 0 0 -2.261795,0.0674 c 0.783404,1.545776 2.527145,2.704048 5.643962,3.289507 a 16.531761,16.531761 0 0 0 2.244945,0.26535 7.7035903,7.7035903 0 0 0 -5.627112,-3.622253 z"
     id="path46"
     style="stroke-width:0.421191" />
  <path
     class="cls-2"
     d="m 10.471034,25.052462 c -0.345373,0.07161 -0.68233,0.155841 -1.006642,0.248503 a 9.371508,9.371508 0 0 0 7.505625,3.790722 c -1.276204,-2.202831 -3.896018,-3.559068 -6.498983,-4.039225 z"
     id="path47"
     style="stroke-width:0.421191" />
  <path
     class="cls-2"
     d="m 20.128945,17.993294 c 2.396586,0.70339 5.896695,0.728661 8.103731,-2.105956 a 14.135182,14.135182 0 0 0 -0.77499,-2.948341 c -2.354463,-1.364659 -5.85035,-1.373083 -9.232516,-0.248502 -0.4928,2.918857 0.219015,4.721556 1.903775,5.302799 z"
     id="path48"
     style="stroke-width:0.421191" />
  <path
     class="cls-2"
     d="m 60.618082,52.90164 a 15.33979,15.33979 0 0 0 -1.924846,2.051203 c -2.565055,3.289498 -3.062068,7.160253 -1.335176,8.845013 a 26.033838,26.033838 0 0 0 2.388152,-2.38394 15.71465,15.71465 0 0 0 0.926619,-4.540438 26.585599,26.585599 0 0 0 -0.05471,-3.971838 z"
     id="path49"
     style="stroke-width:0.421191" />
  <path
     class="cls-2"
     d="m 56.06922,16.653906 a 12.842125,12.842125 0 0 0 -5.163818,-5.28174 17.268847,17.268847 0 0 0 -2.000657,-0.935044 17.529986,17.529986 0 0 0 -0.922407,2.105956 c 1.465744,2.190196 4.641532,3.613822 8.086882,4.110828 z"
     id="path50"
     style="stroke-width:0.421191" />
  <path
     class="cls-2"
     d="m 50.421046,8.05739 -0.08841,0.1095109 c 0.172681,0.2105942 0.345372,0.4211904 0.526488,0.6107266 2.872517,3.1378755 7.442451,4.8563365 10.277069,3.7064835 a 3.4748289,3.4748289 0 0 0 0.46752,-0.235867 25.835879,25.835879 0 0 0 -2.527145,-3.1294513 C 56.877946,7.8046755 53.845365,7.2529151 50.421086,8.05739 Z"
     id="path51"
     style="stroke-width:0.421191" />
  <path
     class="cls-2"
     d="m 61.216168,41.984353 a 7.7078021,7.7078021 0 0 0 0.968742,2.80092 5.4965474,5.4965474 0 0 0 1.545776,-3.057845 7.4592992,7.4592992 0 0 0 -1.179332,-5.753479 h -0.02111 c -1.34361,1.356236 -1.596323,3.908664 -1.314124,6.010404 z"
     id="path52"
     style="stroke-width:0.421191" />
  <path
     class="cls-2"
     d="m 44.006298,14.543737 a 13.14117,13.14117 0 0 0 0.745504,-3.976046 10.310764,10.310764 0 0 0 -4.586773,8.175324 v 0 a 7.3287299,7.3287299 0 0 0 3.841269,-4.199278 z"
     id="path53"
     style="stroke-width:0.421191" />
  <path
     class="cls-2"
     d="m 24.142916,8.4575224 a 7.7667688,7.7667688 0 0 0 0.791838,-0.1263578 14.375261,14.375261 0 0 0 -2.91465,-2.9188568 8.786052,8.786052 0 0 0 -2.312341,2.7882879 10.660354,10.660354 0 0 0 4.435153,0.2569267 z"
     id="path54"
     style="stroke-width:0.421191" />
  <path
     class="cls-3"
     d="m 27.525072,65.448928 a 5.8966792,5.8966792 0 0 1 -1.604738,-0.652855 4.8352769,4.8352769 0 0 0 1.432047,3.099977 c 2.767232,0.694967 4.700503,-0.787636 5.951434,-3.196848 v 0 c -1.410986,1.09932 -3.314771,1.356236 -5.778743,0.749726 z"
     id="path55"
     style="stroke-width:0.421191" />
  <path
     class="cls-3"
     d="m 64.775238,25.065097 a 6.4021088,6.4021088 0 0 0 -2.244946,4.262457 6.3557777,6.3557777 0 0 0 1.044552,0.951893 3.9170798,3.9170798 0 0 0 1.225668,-1.764793 5.0837798,5.0837798 0 0 0 -0.02527,-3.449557 z"
     id="path56"
     style="stroke-width:0.421191" />
  <path
     class="cls-3"
     d="m 44.751802,10.567691 a 13.14117,13.14117 0 0 1 -0.745504,3.976046 7.3287299,7.3287299 0 0 1 -3.82442,4.211914 11.793358,11.793358 0 0 1 4.12767,2.556631 c 0.884507,-1.43205 1.293063,-3.285292 1.352034,-5.235408 a 13.082204,13.082204 0 0 0 -0.897144,-5.509183 z"
     id="path57"
     style="stroke-width:0.421191" />
  <path
     class="cls-3"
     d="m 60.618082,52.90164 a 26.585599,26.585599 0 0 1 0.05471,3.980253 15.71465,15.71465 0 0 1 -0.92662,4.540438 27.739664,27.739664 0 0 0 4.211915,-6.553732 9.7716401,9.7716401 0 0 0 -2.169126,-2.914649 14.800665,14.800665 0 0 0 -1.170918,0.94769 z"
     id="path58"
     style="stroke-width:0.421191" />
  <path
     class="cls-3"
     d="m 8.0070726,22.685366 0.2990381,-0.08424 C 8.7273031,20.145581 10.319404,17.698459 12.7539,15.67674 A 17.075098,17.075098 0 0 1 14.653473,14.324716 20.132948,20.132948 0 0 0 15.394765,9.6368554 36.64365,36.64365 0 0 0 15.108353,4.140309 26.244435,26.244435 0 0 0 9.868726,7.8467928 c 1.68477,1.2888448 2.105962,4.1192512 0.328533,6.8864792 A 16.199021,16.199021 0 0 1 6.869852,18.385 20.781582,20.781582 0 0 0 7.657478,21.754531 c 0.1053056,0.324318 0.2274402,0.627576 0.3495946,0.930833 z"
     id="path59"
     style="stroke-width:0.421191" />
  <path
     class="cls-3"
     d="m 47.270522,10.955187 a 5.0542965,5.0542965 0 0 0 0.711816,1.579468 17.529986,17.529986 0 0 1 0.922407,-2.105958 17.302541,17.302541 0 0 0 -1.79849,-0.5980916 5.5428784,5.5428784 0 0 0 0.164267,1.1245816 z"
     id="path60"
     style="stroke-width:0.421191" />
  <path
     class="cls-3"
     d="m 43.243935,62.833326 a 8.1332054,8.1332054 0 0 0 -1.827975,0.905559 17.369932,17.369932 0 0 0 4.018172,1.389934 10.702472,10.702472 0 0 1 -1.587899,-2.480821 c -0.202157,0.05055 -0.400121,0.11372 -0.602298,0.185328 z"
     id="path61"
     style="stroke-width:0.421191" />
  <path
     class="cls-3"
     d="m 6.4233862,28.030285 a 6.1957251,6.1957251 0 0 1 0.3580091,2.438698 c -0.1895401,2.253373 -0.9476806,3.731755 -2.1438525,4.633104 0.8128895,1.158283 2.1059425,2.055407 3.8581079,2.640866 h 0.1263568 a 4.7973697,4.7973697 0 0 0 0.7707775,-1.04034 c 1.617374,-2.855675 0.627571,-6.861206 -2.9693988,-8.672328 z"
     id="path62"
     style="stroke-width:0.421191" />
  <path
     class="cls-3"
     d="m 26.3668,10.538207 a 19.374803,19.374803 0 0 0 -1.432046,-2.2070424 7.7667688,7.7667688 0 0 1 -0.791838,0.1263578 10.660354,10.660354 0 0 1 -4.435153,-0.2569267 11.915504,11.915504 0 0 0 -0.842385,1.9922353 18.170196,18.170196 0 0 0 -0.627572,2.46818 c 3.36953,-1.124581 6.878054,-1.116156 9.232507,0.248504 A 17.471017,17.471017 0 0 0 26.3668,10.538207 Z"
     id="path63"
     style="stroke-width:0.421191" />
  <path
     class="cls-3"
     d="m 50.421046,8.05739 -0.147428,0.033698 0.05897,0.07582 z"
     id="path64"
     style="stroke-width:0.421191" />
  <path
     class="cls-3"
     d="m 50.180959,38.922296 a 6.0356723,6.0356723 0 0 0 0.450678,3.630668 6.8696312,6.8696312 0 0 1 2.261795,-0.0674 7.7035903,7.7035903 0 0 1 5.627112,3.622253 q 0.522276,0.02527 1.010854,0 c 0.657067,-4.666805 -0.753928,-8.752353 -3.222112,-11.536435 -3.778075,-0.07582 -5.690285,1.242518 -6.128327,4.35091 z"
     id="path65"
     style="stroke-width:0.421191" />
  <path
     class="cls-3"
     d="m 42.616364,54.847538 c 0.04628,-0.669694 0.126356,-1.322539 0.231652,-1.954332 -1.41941,0.68233 -2.855669,2.105962 -4.211905,4.671017 a 9.127217,9.127217 0 0 0 1.406763,0.842385 11.582763,11.582763 0 0 0 2.754605,0.842385 18.431335,18.431335 0 0 1 -0.181115,-4.401455 z"
     id="path66"
     style="stroke-width:0.421191" />
  <path
     class="cls-3"
     d="m 13.811088,41.205152 c 3.828623,1.469956 5.631325,4.31721 5.155383,6.625339 -0.56862,2.767222 -3.474835,3.959202 -7.918402,3.226335 a 25.646343,25.646343 0 0 0 1.208818,2.948327 c 0.147418,0.30326 0.30325,0.589671 0.459103,0.87187 a 14.964929,14.964929 0 0 1 2.527145,0.842376 9.8516659,9.8516659 0 0 1 4.654158,3.967625 15.419816,15.419816 0 0 0 1.491018,-3.272658 24.483855,24.483855 0 0 0 1.170918,-7.261336 q -2.527155,-2.994672 -3.36953,-8.032113 a 14.400533,14.400533 0 0 0 -5.378611,0.08424 z"
     id="path67"
     style="stroke-width:0.421191" />
  <path
     class="cls-3"
     d="m 4.4227294,51.166323 c -0.071657,0.362232 -0.130569,0.716029 -0.1853279,1.065613 a 6.8527836,6.8527836 0 0 0 2.2028336,-2.506083 11.098392,11.098392 0 0 1 -1.4741687,-0.817112 20.095041,20.095041 0 0 0 -0.543337,2.257582 z"
     id="path68"
     style="stroke-width:0.421191" />
  <path
     class="cls-2"
     d="m 29.003453,5.6692356 a 4.3172116,4.3172116 0 0 0 -2.312341,-1.3815078 5.3828257,5.3828257 0 0 0 -3.790713,0.5475482 6.5074067,6.5074067 0 0 0 -0.901356,0.5770318 8.786052,8.786052 0 0 0 -2.29128,2.7882879 11.915504,11.915504 0 0 0 -0.842385,1.9922353 18.170196,18.170196 0 0 0 -0.627572,2.46818 c -0.505436,2.948341 0.210592,4.75104 1.903786,5.332283 2.396576,0.70339 5.896675,0.728661 8.103721,-2.105956 A 7.5477493,7.5477493 0 0 0 29.0161,14.649035 l 0.130559,-0.265351 c 0.11372,-0.248503 0.223228,-0.50543 0.320099,-0.779203 1.036137,-2.893586 0.981388,-5.1764422 0.256935,-6.7727584 a 4.6331051,4.6331051 0 0 0 -0.72024,-1.162487 z"
     id="path69"
     style="stroke-width:0.421191" />
  <path
     class="cls-2"
     d="m 62.551354,35.973949 h -0.02111 a 11.831266,11.831266 0 0 0 -1.747943,-0.703384 13.629752,13.629752 0 0 0 -2.333403,-0.509642 c -0.770787,-0.09687 -1.478391,-0.151629 -2.13966,-0.168476 -3.790713,-0.08846 -5.690286,1.229881 -6.128327,4.338273 a 6.0356723,6.0356723 0 0 0 0.450678,3.630668 c 0.783404,1.545767 2.527145,2.704048 5.643961,3.289498 a 16.531761,16.531761 0 0 0 2.244946,0.26535 q 0.522286,0.02527 1.010864,0 h 0.0337 a 11.275293,11.275293 0 0 0 2.051203,-0.240077 7.9689407,7.9689407 0 0 0 1.124584,-0.315887 c 2.105962,-0.766575 3.36953,-2.249168 3.546433,-4.022384 0.26535,-2.480811 -1.394146,-4.388809 -3.735963,-5.563939 z"
     id="path70"
     style="stroke-width:0.421191" />
  <path
     class="cls-2"
     d="m 43.163913,2.1986183 a 11.70912,11.70912 0 0 0 -2.350252,-0.054759 c -0.362221,0.025273 -0.724442,0.067396 -1.078249,0.1221456 l -0.450678,0.080022 c -3.318983,0.6528468 -5.277518,2.5903272 -4.860548,4.2119138 a 1.6510701,1.6510701 0 0 0 0.223238,0.4970055 c 0.8129,1.2635744 3.306347,1.5794683 6.027244,0.9855886 A 16.426464,16.426464 0 0 0 42.629,7.4887747 L 42.898563,7.3834771 A 8.5291253,8.5291253 0 0 0 44.469602,6.6084838 3.6222458,3.6222458 0 0 0 45.931135,5.0585 1.9248446,1.9248446 0 0 0 46.019542,3.7401707 C 45.779455,2.8977887 44.625395,2.3923577 43.163863,2.1986104 Z"
     id="path71"
     style="stroke-width:0.421191" />
  <path
     class="cls-4"
     d="m 62.551354,35.973949 a 7.4592992,7.4592992 0 0 1 1.179332,5.753479 5.4965474,5.4965474 0 0 1 -1.545776,3.057845 6.1241226,6.1241226 0 0 0 0.555974,0.779211 c 2.105962,-0.766574 3.36953,-2.249168 3.546433,-4.022384 0.26535,-2.485023 -1.394146,-4.393021 -3.735963,-5.568151 z"
     id="path72"
     style="stroke-width:0.421191" />
  <path
     class="cls-4"
     d="m 44.136867,5.0458723 a 2.586115,2.586115 0 0 0 1.806904,0 1.9248446,1.9248446 0 0 0 0.08841,-1.3183294 C 45.792111,2.88516 44.638032,2.379731 43.17651,2.1859826 a 12.025014,12.025014 0 0 0 -2.350252,-0.054759 l 0.06323,0.113722 a 6.2715395,6.2715395 0 0 0 3.247396,2.8009225 z"
     id="path73"
     style="stroke-width:0.421191" />
  <path
     class="cls-4"
     d="m 46.242819,47.586192 a 11.688061,11.688061 0 0 1 -2.948337,3.33163 13.574998,13.574998 0 0 1 -6.410536,2.485033 6.3894731,6.3894731 0 0 0 -0.421193,1.583676 c 0,0.130569 -0.02111,0.252714 -0.02944,0.383293 a 9.3588722,9.3588722 0 0 0 2.232309,2.194399 c 1.352025,-2.573479 2.788283,-3.988687 4.211915,-4.671017 a 5.6945073,5.6945073 0 0 1 4.119256,-0.286402 c 2.105952,0.572813 3.209475,2.282856 2.379727,6.191511 a 14.387898,14.387898 0 0 0 3.36953,-1.520503 c 0.90977,-3.925494 2.695624,-6.621128 4.948994,-7.977364 a 18.073322,18.073322 0 0 0 -3.420076,-1.074037 27.208962,27.208962 0 0 0 -8.032113,-0.640219 z"
     id="path74"
     style="stroke-width:0.421191" />
  <path
     class="cls-4"
     d="m 48.045511,62.930197 c -0.08424,0.206389 -0.155832,0.421203 -0.244289,0.619157 -0.269562,0.66127 -0.547549,1.263568 -0.842375,1.870088 l 0.421193,0.0674 a 34.183891,34.183891 0 0 0 3.609606,0.299048 6.0146128,6.0146128 0 0 0 -2.944135,-2.855679 z"
     id="path75"
     style="stroke-width:0.421191" />
  <path
     class="cls-4"
     d="m 26.274141,62.530066 a 5.3027993,5.3027993 0 0 0 -0.244299,0.79605 c 2.868315,-0.678118 6.124125,-0.581247 7.26976,1.364671 v 0 0 a 14.889115,14.889115 0 0 0 1.175121,-3.234758 c 0.04212,-0.168479 0.08008,-0.341161 0.122155,-0.50964 l -0.09683,-0.06739 c -3.420077,-2.190187 -7.210799,-0.846597 -8.225865,1.651072 z"
     id="path76"
     style="stroke-width:0.421191" />
  <path
     class="cls-4"
     d="m 10.471034,25.052462 c 2.602965,0.480157 5.222779,1.836394 6.498983,4.043437 a 11.586974,11.586974 0 0 0 2.476608,-0.227444 18.886221,18.886221 0 0 1 0.998217,-3.201053 19.867596,19.867596 0 0 0 -6.157812,-0.960317 16.649695,16.649695 0 0 0 -3.815996,0.345377 z"
     id="path77"
     style="stroke-width:0.421191" />
  <path
     class="cls-4"
     d="m 12.703353,54.877023 c -0.155842,-0.282199 -0.311685,-0.56861 -0.459102,-0.87187 A 25.646343,25.646343 0 0 1 11.035432,51.056826 C 9.717096,47.152373 9.906636,44.077679 10.925924,42.043325 A 13.27174,13.27174 0 0 0 7.6869636,43.87129 l -0.4633147,0.37907 -0.025273,0.0337 A 8.9671643,8.9671643 0 0 1 6.9667232,48.365394 6.8654193,6.8654193 0 0 1 4.2374015,52.231936 26.000144,26.000144 0 0 0 3.9425658,55.34454 v 0.0674 A 27.954471,27.954471 0 0 0 6.570804,59.750212 2.8177703,2.8177703 0 0 1 8.0786606,58.36449 c 1.9080074,-0.716019 4.3677564,0.06739 6.4821334,1.945907 a 11.586974,11.586974 0 0 1 2.426062,2.872528 v 0 a 15.188161,15.188161 0 0 0 2.223894,-2.476608 c -2.308119,-0.774994 -4.704695,-2.577696 -6.507397,-5.829303 z"
     id="path78"
     style="stroke-width:0.421191" />
  <path
     class="cls-4"
     d="M 4.6754429,39.533019 A 8.2258674,8.2258674 0 0 0 3.7277623,37.300709 9.6115875,9.6115875 0 0 0 2.7548183,35.990798 8.0700266,8.0700266 0 0 0 0.02969886,33.948023 c 0,0.585456 -0.0294359962,1.170912 -0.0294359962,1.773212 0,0.181116 0,0.358019 0,0.539135 0,0.694967 0.0211109962,1.377287 0.0462849962,2.051203 0.1347812,0.09683 0.2653502,0.193743 0.4211925,0.282199 a 7.0633793,7.0633793 0 0 0 4.20770254,0.939247 z"
     id="path79"
     style="stroke-width:0.421191" />
  <path
     class="cls-4"
     d="M 64.775238,25.065097 C 64.278236,23.738345 63.162076,22.445287 61.169834,21.4597 a 9.0134954,9.0134954 0 0 0 -0.30325,4.148734 7.0675912,7.0675912 0 0 0 1.68477,3.71912 6.4021088,6.4021088 0 0 1 2.223884,-4.262457 z"
     id="path80"
     style="stroke-width:0.421191" />
  <path
     class="cls-4"
     d="M 29.723693,6.8233001 A 4.6331051,4.6331051 0 0 0 29.003453,5.6692356 4.3172116,4.3172116 0 0 0 26.691112,4.2877278 5.2522563,5.2522563 0 0 0 23.54482,4.5404423 3.4411335,3.4411335 0 0 0 23.797523,4.8436995 c 1.074038,1.1372167 2.716695,1.7437331 4.249825,1.9374814 a 8.3901321,8.3901321 0 0 0 1.676345,0.042112 z"
     id="path81"
     style="stroke-width:0.421191" />
  <path
     class="cls-4"
     d="M 8.6220075,37.768236 H 8.4956507 l 0.1137201,0.03786 z"
     id="path82"
     style="stroke-width:0.421191" />
  <path
     class="cls-4"
     d="m 48.866845,34.588234 a 10.580327,10.580327 0 0 0 4.86475,-2.194406 10.769864,10.769864 0 0 0 -2.501872,-1.158277 12.951635,12.951635 0 0 0 -2.682987,-0.539125 33.274119,33.274119 0 0 1 0.320109,3.891808 z"
     id="path83"
     style="stroke-width:0.421191" />
  <path
     class="cls-4"
     d="m 55.247886,30.696426 a 12.749462,12.749462 0 0 0 2.017505,-4.376179 c 0.0674,-0.282197 0.126367,-0.568608 0.181116,-0.842382 a 12.669436,12.669436 0 0 1 -6.920175,2.569268 c 0.105305,0.109509 0.214813,0.214807 0.332745,0.320105 a 10.807771,10.807771 0 0 0 4.110822,2.257585 z"
     id="path84"
     style="stroke-width:0.421191" />
  <path
     class="cls-4"
     d="m 51.347656,3.5295824 a 8.1079338,8.1079338 0 0 0 -2.720898,2.0680503 15.314518,15.314518 0 0 0 1.64686,2.5271479 l 0.147428,-0.033698 c 3.424269,-0.8044749 6.456851,-0.2527145 8.65126,1.0614027 A 25.553681,25.553681 0 0 0 53.870598,4.9405727 28.464113,28.464113 0 0 0 51.347656,3.5295804 Z"
     id="path85"
     style="stroke-width:0.421191" />
  <path
     class="cls-4"
     d="m 31.897041,13.705566 c 0.202167,-0.248502 0.421193,-0.488582 0.627572,-0.716025 -0.219016,0.227443 -0.425405,0.467523 -0.627572,0.716025 z"
     id="path86"
     style="stroke-width:0.421191" />
  <path
     class="cls-4"
     d="m 31.294743,14.547949 c 0.181106,-0.282199 0.374848,-0.55176 0.577025,-0.808687 -0.202177,0.256927 -0.395919,0.526488 -0.577025,0.808687 z"
     id="path87"
     style="stroke-width:0.421191" />
  <path
     class="cls-4"
     d="m 33.8261,17.727944 a 18.229162,18.229162 0 0 1 6.317868,1.015071 10.310764,10.310764 0 0 1 4.607834,-8.175324 v 0 -0.02106 A 8.6681184,8.6681184 0 0 0 44.103169,9.2830555 c -4.384606,-0.4464639 -8.765,0.7539315 -11.578556,3.7149075 0.138993,3.512736 1.111947,4.742614 1.111947,4.742614"
     id="path88"
     style="stroke-width:0.421191" />
  <path
     class="cls-5"
     d="m 31.871768,13.739262 0.02527,-0.0337 z"
     id="path89"
     style="stroke-width:0.421191" />
  <polygon
     class="cls-5"
     points=""
     id="polygon89"
     transform="matrix(0.42119137,0,0,0.42119137,2.1336376e-4,0.04633048)" />
  <path
     class="cls-5"
     d="m 2.8938018,46.141519 c 1.4741687,-1.040349 2.173348,-3.028369 2.0301423,-5.125907 0,-0.05897 0,-0.122145 0,-0.185328 A 8.29747,8.29747 0 0 0 4.696504,39.533019 7.0633793,7.0633793 0 0 1 0.48458916,38.593772 c -0.1432057,-0.08841 -0.2737746,-0.185328 -0.4211925,-0.282199 0.03786,0.918185 0.096832,1.811117 0.1726912,2.691412 a 49.485774,49.485774 0 0 0 0.84238494,5.947211 6.098851,6.098851 0 0 0 1.5415544,-0.640208 c 0.096832,-0.05481 0.1937523,-0.109508 0.2737746,-0.168469 z"
     id="path90"
     style="stroke-width:0.421191" />
  <path
     class="cls-5"
     d="m 34.647424,7.0549545 a 5.7955933,5.7955933 0 0 1 4.173995,-1.2846326 6.5200425,6.5200425 0 0 1 3.790732,1.7184598 l 0.269563,-0.1052976 a 8.5291253,8.5291253 0 0 0 1.57104,-0.7749924 3.6222458,3.6222458 0 0 0 1.461532,-1.5499847 2.586115,2.586115 0 0 1 -1.806905,0 6.2715395,6.2715395 0 0 1 -3.247385,-2.7882869 l -0.06323,-0.113721 c -0.362221,0.025273 -0.724443,0.067395 -1.07825,0.1221455 l -0.450678,0.080022 c -3.318983,0.6528468 -5.277517,2.5903272 -4.860547,4.2119138 a 1.6510701,1.6510701 0 0 0 0.240087,0.4843699 z"
     id="path91"
     style="stroke-width:0.421191" />
  <path
     class="cls-5"
     d="m 58.62584,49.751126 c -0.08008,0.214813 -0.155832,0.421192 -0.244289,0.648633 a 14.072004,14.072004 0 0 1 -5.673447,6.878053 14.387898,14.387898 0 0 1 -3.36953,1.520503 14.122547,14.122547 0 0 1 -6.545317,0.421192 11.582763,11.582763 0 0 1 -2.754585,-0.842385 9.127217,9.127217 0 0 1 -1.406783,-0.842375 9.3588722,9.3588722 0 0 1 -2.232309,-2.194419 7.8215238,7.8215238 0 0 0 1.031915,4.852133 9.5526201,9.5526201 0 0 0 3.97605,3.516948 8.1332054,8.1332054 0 0 1 1.827966,-0.905558 c 0.202176,-0.07166 0.421192,-0.134792 0.602308,-0.185328 a 6.1746655,6.1746655 0 0 1 4.211915,0.282199 6.0146128,6.0146128 0 0 1 2.948337,2.855668 h 1.141433 c 0.968732,0 1.924837,-0.04629 2.847244,-0.134781 a 26.408699,26.408699 0 0 0 2.388161,-1.857441 c -1.726892,-1.68477 -1.229879,-5.563949 1.335176,-8.845022 a 15.33979,15.33979 0 0 1 1.924846,-2.051204 14.800665,14.800665 0 0 1 1.187758,-0.94768 12.778946,12.778946 0 0 0 -1.499442,-1.208829 14.476348,14.476348 0 0 0 -1.697407,-0.960307 z"
     id="path92"
     style="stroke-width:0.421191" />
  <path
     class="cls-5"
     d="m 3.8372701,47.977909 a 12.85476,12.85476 0 0 0 -1.5626154,3.36953 c 0.1768935,0.5307 0.3664336,1.048764 0.5643882,1.558413 0.3285335,0.842385 0.6907648,1.64685 1.0740472,2.430274 0,0 0,0.0337 0.029436,0.05471 v -0.06739 a 26.000144,26.000144 0 0 1 0.2948259,-3.1126 c 0.054808,-0.349595 0.11372,-0.703392 0.1853278,-1.065623 a 20.095041,20.095041 0 0 1 0.543337,-2.236522 16.961377,16.961377 0 0 1 2.2154702,-4.633107 l 0.025273,-0.0337 H 7.181487 a 16.485431,16.485431 0 0 0 -3.3442664,3.735964 z"
     id="path93"
     style="stroke-width:0.421191" />
  <path
     class="cls-5"
     d="m 24.934754,8.3311646 a 19.374803,19.374803 0 0 1 1.432046,2.2070424 17.471017,17.471017 0 0 1 1.103513,2.371308 14.135182,14.135182 0 0 1 0.775,2.948339 7.5477493,7.5477493 0 0 0 0.770787,-1.238303 l 0.130559,-0.26535 c 0.11372,-0.248504 0.223228,-0.505429 0.320099,-0.779205 1.036137,-2.893584 0.981388,-5.1764408 0.256935,-6.772756 A 8.3901321,8.3901321 0 0 1 28.038933,6.760128 C 26.505794,6.5663794 24.863146,5.959864 23.789109,4.8226473 A 3.4411335,3.4411335 0 0 1 23.536385,4.5193891 5.2438326,5.2438326 0 0 0 22.913026,4.8142239 6.5074067,6.5074067 0 0 0 22.01167,5.3912557 14.375261,14.375261 0 0 1 24.934754,8.3311716 Z"
     id="path94"
     style="stroke-width:0.421191" />
  <path
     class="cls-5"
     d="m 61.211966,41.984353 c -0.277997,-2.105952 -0.02527,-4.633097 1.318326,-6.018819 a 11.831266,11.831266 0 0 0 -1.747943,-0.703393 13.629752,13.629752 0 0 0 -2.333402,-0.509642 c -0.770787,-0.09687 -1.478391,-0.151629 -2.139661,-0.168477 2.468184,2.784073 3.879179,6.869631 3.222112,11.536426 h 0.0337 a 11.275293,11.275293 0 0 0 2.051204,-0.240067 7.9689407,7.9689407 0 0 0 1.124584,-0.315897 6.1241226,6.1241226 0 0 1 -0.555974,-0.779211 7.7878285,7.7878285 0 0 1 -0.972944,-2.80092 z"
     id="path95"
     style="stroke-width:0.421191" />
  <path
     class="cls-5"
     d="M 66.548455,24.277469 A 38.467407,38.467407 0 0 0 64.74154,18.174407 c -1.769004,0.315892 -2.948337,1.566832 -3.554857,3.285293 1.992242,0.985587 3.108402,2.278645 3.605404,3.605397 a 5.0837798,5.0837798 0 0 1 0.02527,3.449557 3.9170798,3.9170798 0 0 1 -1.225657,1.764793 5.9345864,5.9345864 0 0 0 3.925503,1.133004 51.027334,51.027334 0 0 0 -0.968741,-7.134982 z"
     id="path96"
     style="stroke-width:0.421191" />
  <path
     class="cls-5"
     d="m 22.538168,49.182516 a 24.483855,24.483855 0 0 1 -1.170918,7.261345 15.419816,15.419816 0 0 1 -1.491008,3.272659 c -0.206389,0.345372 -0.421193,0.673896 -0.657067,0.989793 a 15.188161,15.188161 0 0 1 -2.223885,2.476608 16.182173,16.182173 0 0 0 3.693841,-1.111948 12.416722,12.416722 0 0 0 1.613172,-0.842385 c 0.231653,-0.147417 0.421183,-0.30326 0.657057,-0.463314 l 0.130569,-0.09267 a 11.279505,11.279505 0 0 1 0.358019,-2.906225 8.5754563,8.5754563 0 0 1 3.84126,-5.172242 0.32010544,0.32010544 0 0 1 0,-0.06323 11.974471,11.974471 0 0 1 -2.948338,-1.625789 11.557491,11.557491 0 0 1 -1.802702,-1.72268 z"
     id="path97"
     style="stroke-width:0.421191" />
  <path
     class="cls-5"
     d="m 36.555412,62.820689 a 7.7836165,7.7836165 0 0 0 -1.179333,-1.297265 6.9159623,6.9159623 0 0 0 -0.770787,-0.589671 c -0.04212,0.168479 -0.07998,0.34116 -0.122135,0.509639 a 14.889115,14.889115 0 0 1 -1.17513,3.234749 v 0 c -1.263578,2.409222 -3.184202,3.891815 -5.951434,3.196848 a 6.2715395,6.2715395 0 0 0 2.354464,1.423632 10.56348,10.56348 0 0 0 2.059628,0.49279 l 0.235864,0.02527 a 8.4238274,8.4238274 0 0 0 3.660154,-0.315877 3.563279,3.563279 0 0 0 1.491017,-0.92663 c 0.842385,-0.918195 0.913993,-2.320765 0.459093,-3.740175 a 7.421392,7.421392 0 0 0 -1.061401,-2.013294 z"
     id="path98"
     style="stroke-width:0.421191" />
  <path
     class="cls-5"
     d="M 6.6508263,22.807512 A 4.1697946,4.1697946 0 0 0 8.0154872,22.685366 C 7.8933426,22.382109 7.7711981,22.07885 7.6658926,21.754533 a 20.781582,20.781582 0 0 1 -0.7876162,-3.369531 16.721297,16.721297 0 0 1 0.6823304,-8.107934 28.868457,28.868457 0 0 0 -4.9574285,8.735509 8.0910862,8.0910862 0 0 0 0.7413015,1.533137 c 0.8171017,1.314117 1.9416857,2.152288 3.3063465,2.261798 z"
     id="path99"
     style="stroke-width:0.421191" />
  <path
     class="cls-5"
     d="m 44.103169,9.274633 a 8.6681184,8.6681184 0 0 1 0.648633,1.263574 v 0.02106 a 13.082204,13.082204 0 0 1 0.897133,5.509184 c -0.05897,1.950116 -0.467517,3.790721 -1.352024,5.235409 q 2.527145,2.442909 3.660164,6.579008 a 24.205868,24.205868 0 0 1 0.577024,2.813559 12.951635,12.951635 0 0 1 2.682988,0.539125 10.769864,10.769864 0 0 1 2.501881,1.158276 8.002636,8.002636 0 0 0 0.922407,-0.926621 c 0.210592,-0.252714 0.421193,-0.509641 0.593874,-0.77078 l -0.277987,-0.08002 a 10.807771,10.807771 0 0 1 -4.081336,-2.274434 c -0.117942,-0.105298 -0.22744,-0.210596 -0.332745,-0.320106 -1.600526,-1.638433 -2.105953,-3.605397 -1.76058,-5.281739 0.60652,-2.754592 3.213687,-3.668577 8.588096,-2.527149 A 13.667659,13.667659 0 0 0 56.10713,16.649699 C 52.66178,16.152694 49.485992,14.729067 48.020248,12.530447 A 5.0542965,5.0542965 0 0 1 47.308432,10.95098 5.5428784,5.5428784 0 0 1 47.144165,9.8348224 C 46.874603,9.7590124 46.609253,9.6916184 46.33969,9.6284394 45.825839,9.5147178 45.311987,9.4178446 44.798136,9.3462418 Z"
     id="path100"
     style="stroke-width:0.421191" />
  <path
     class="cls-5"
     d="M 51.347656,3.5295824 A 31.471419,31.471419 0 0 0 47.363191,1.9627507 11.717543,11.717543 0 0 0 48.626758,5.5849971 8.1079338,8.1079338 0 0 1 51.347656,3.5295824 Z"
     id="path101"
     style="stroke-width:0.421191" />
  <path
     class="cls-5"
     d="m 18.772709,35.704396 a 34.727228,34.727228 0 0 1 0.358019,-5.146963 c 0.08841,-0.581245 0.193752,-1.145641 0.315897,-1.684765 a 11.586974,11.586974 0 0 1 -2.476608,0.227443 9.371508,9.371508 0 0 1 -7.505625,-3.790723 c -0.349594,0.105298 -0.6907643,0.21902 -1.0192879,0.349589 A 9.2662102,9.2662102 0 0 0 6.027467,27.027849 7.0591674,7.0591674 0 0 0 5.3872489,27.596457 c 0.2190257,0.07161 0.4212024,0.147418 0.6360059,0.235868 0.2148134,0.08846 0.2695624,0.130569 0.4211925,0.19796 3.6011817,1.811122 4.5867727,5.816653 2.9693987,8.697602 a 4.7973697,4.7973697 0 0 1 -0.7707873,1.040349 v 0 a 18.064898,18.064898 0 0 0 5.9514333,0.741292 16.616,16.616 0 0 0 4.270886,-0.631784 c -0.07166,-0.690755 -0.09267,-1.41942 -0.09267,-2.173348 z"
     id="path102"
     style="stroke-width:0.421191" />
  <path
     class="cls-5"
     d="m 30.1154,16.969799 a 11.70912,11.70912 0 0 0 -0.353797,1.154065 c 0.09267,0 0.791839,-0.160053 1.794268,-0.26535 a 20.255093,20.255093 0 0 1 2.080689,-0.10951 c 0,0 -0.972954,-1.22988 -1.111947,-4.742616 -0.219016,0.227444 -0.421183,0.467524 -0.627572,0.716026 l -0.02527,0.0337 c -0.202177,0.256925 -0.395919,0.526488 -0.577035,0.808687 -0.101083,0.15584 -0.202166,0.315893 -0.299048,0.480158 a 12.328272,12.328272 0 0 0 -0.79605,1.714249 c -0.02527,0.05476 -0.05897,0.122146 -0.08414,0.210595 z"
     id="path103"
     style="stroke-width:0.421191" />
  <path
     class="cls-6"
     d="m 67.597219,33.063521 c 0,-0.555972 -0.04628,-1.107733 -0.08008,-1.65107 a 5.8966792,5.8966792 0 0 1 -3.925503,-1.133004 6.3557777,6.3557777 0 0 1 -1.044552,-0.951893 7.0675912,7.0675912 0 0 1 -1.68477,-3.71912 9.0134954,9.0134954 0 0 1 0.30325,-4.148734 c 0.585459,-1.718461 1.785853,-2.94834 3.554858,-3.285293 -0.286401,-0.724449 -0.598086,-1.419415 -0.92662,-2.105957 -0.383272,-0.796052 -0.787626,-1.566831 -1.225657,-2.303917 -0.143216,-0.235867 -0.290633,-0.467522 -0.442264,-0.699177 -0.15162,-0.231655 -0.353787,-0.555974 -0.543337,-0.842384 A 3.4748289,3.4748289 0 0 1 61.115035,12.45884 C 58.280408,13.608692 53.710484,11.890231 50.837957,8.7523561 50.656841,8.5586088 50.48416,8.3522238 50.311469,8.1416285 l -0.05897,-0.07581 A 15.314518,15.314518 0 0 1 48.605628,5.5386696 11.717543,11.717543 0 0 1 47.34206,1.9164232 L 46.668154,1.6974045 A 38.400018,38.400018 0 0 0 42.45624,0.72024043 Q 41.34008,0.52228084 40.169172,0.3790762 C 38.775025,0.21059921 37.338766,0.0884527 35.847739,0.03791 35.173843,0.0126367 34.495725,0 33.800758,0 c -0.935044,0 -1.844815,0.0294855 -2.746171,0.0758101 -0.370646,0 -0.741301,0.0294856 -1.103523,0.0547589 a 44.132432,44.132432 0 0 0 -7.34557,1.1161575 33.918541,33.918541 0 0 0 -3.790722,1.1751237 C 18.022934,2.716684 17.247934,3.03679 16.498218,3.3863777 L 16.27499,3.4958876 c -0.400131,0.1895361 -0.791848,0.3917079 -1.179343,0.5980919 a 36.64365,36.64365 0 0 1 0.286412,5.4965469 20.132948,20.132948 0 0 1 -0.728655,4.7341916 c -1.213041,4.287728 -3.731771,7.442451 -6.3473627,8.27641 l -0.299038,0.08423 A 4.1697946,4.1697946 0 0 1 6.6423325,22.807507 C 5.2860961,22.697998 4.1615121,21.859827 3.3444104,20.54571 A 8.0910862,8.0910862 0 0 1 2.6031188,19.012573 Q 2.249312,19.99395 1.9376274,21.021657 C 1.8323317,21.371245 1.7312483,21.720834 1.6343672,22.078846 A 44.250365,44.250365 0 0 0 0.50978316,27.76493 c -0.2400669,1.773216 -0.3959191,3.626458 -0.467517,5.576574 v 0.606516 a 8.0700266,8.0700266 0 0 1 2.72510954,2.042768 9.6115875,9.6115875 0 0 1 0.9729539,1.309911 8.2342914,8.2342914 0 0 1 1.1751207,3.529575 c 0,0.06323 0,0.126367 0,0.185328 0.1432057,2.105962 -0.5559736,4.085558 -2.0301324,5.125907 -0.080082,0.05897 -0.1769133,0.11372 -0.2653601,0.168469 a 6.098851,6.098851 0 0 1 -1.5415543,0.640209 39.785737,39.785737 0 0 0 1.1877574,4.418303 12.85476,12.85476 0 0 1 1.5626253,-3.36953 16.485431,16.485431 0 0 1 3.3695299,-3.706487 h 0.025174 L 7.686805,43.913402 a 13.27174,13.27174 0 0 1 3.238961,-1.827975 15.584081,15.584081 0 0 1 2.872517,-0.842385 14.400533,14.400533 0 0 1 5.387045,-0.05471 c -0.06323,-0.374868 -0.122144,-0.758151 -0.168469,-1.149858 v -0.105276 c -0.07582,-0.64443 -0.134791,-1.309911 -0.172701,-2.000666 a 16.616,16.616 0 0 1 -4.270866,0.631784 18.064898,18.064898 0 0 1 -5.9514431,-0.741302 l -0.11373,-0.03786 C 6.76861,37.199695 5.4629203,36.302552 4.650011,35.14428 A 5.6860835,5.6860835 0 0 1 3.6686326,31.353558 5.8166527,5.8166527 0 0 1 5.3955247,27.647074 7.0591674,7.0591674 0 0 1 6.0399451,27.070041 9.2662102,9.2662102 0 0 1 8.4575921,25.70117 C 8.7861157,25.570601 9.127276,25.456878 9.476871,25.35158 9.826455,25.246283 10.13814,25.174681 10.483512,25.103078 a 16.649695,16.649695 0 0 1 3.815996,-0.345378 19.867596,19.867596 0 0 1 6.157812,0.960317 c 0.101094,-0.240078 0.206389,-0.480158 0.315897,-0.711813 a 11.793358,11.793358 0 0 1 7.606718,-6.503195 c 0.391707,-0.117934 0.787626,-0.21902 1.204606,-0.30747 l 0.189541,-0.03791 a 11.70912,11.70912 0 0 1 0.353796,-1.154065 c 0.02537,-0.07161 0.05897,-0.138993 0.08424,-0.210596 a 12.328272,12.328272 0 0 1 0.79605,-1.714247 c 0.09693,-0.164265 0.197965,-0.324318 0.299048,-0.480159 a 10.382367,10.382367 0 0 1 1.22989,-1.558408 c 2.813546,-2.948339 7.19394,-4.1613708 11.578546,-3.714907 l 0.657057,0.07581 c 0.513851,0.071608 1.027703,0.168477 1.541554,0.2821984 0.269573,0.06317 0.534923,0.130569 0.804475,0.206384 a 17.690038,17.690038 0 0 1 3.790723,1.5331366 12.842125,12.842125 0 0 1 5.163817,5.28174 13.667659,13.667659 0 0 1 1.263568,3.563278 13.857197,13.857197 0 0 1 0.09267,5.252256 c -0.05471,0.282198 -0.11372,0.568608 -0.181115,0.842383 a 12.749462,12.749462 0 0 1 -2.017496,4.376179 c -0.18954,0.261139 -0.383292,0.518065 -0.593894,0.77078 a 8.002636,8.002636 0 0 1 -0.922407,0.926621 10.580327,10.580327 0 0 1 -4.86475,2.194407 c 0,0.366436 0,0.737085 0,1.116148 0,0.02527 0,0.05055 0,0.07582 A 30.043581,30.043581 0 0 1 48.00747,43.248 c -0.04628,0.172691 -0.08841,0.345373 -0.138994,0.513852 a 15.98,15.98 0 0 1 -1.64686,3.866532 27.208962,27.208962 0 0 1 8.023689,0.598096 18.073322,18.073322 0 0 1 3.420076,1.074037 c 0.332746,0.138994 0.657057,0.290624 0.968752,0.450678 a 14.476348,14.476348 0 0 1 1.68476,0.994005 12.778946,12.778946 0 0 1 1.499442,1.208819 9.7716401,9.7716401 0 0 1 2.156489,2.923064 33.556317,33.556317 0 0 0 1.642657,-4.296149 c 0.07166,-0.231653 0.143196,-0.454881 0.210592,-0.690755 0.256925,-0.871861 0.480153,-1.773217 0.678118,-2.695624 0.0337,-0.147418 0.06323,-0.294826 0.09267,-0.421183 A 53.55027,53.55027 0 0 0 67.634988,36.47103 c 0,-0.04628 0,-0.09267 0,-0.139003 0,-0.197954 0,-0.391697 0,-0.589661 0.02111,-0.926616 0,-1.806906 -0.03786,-2.678771 z M 29.466758,13.600268 c -0.09683,0.273774 -0.206379,0.530702 -0.320099,0.779205 l -0.130559,0.26535 a 7.5477493,7.5477493 0 0 1 -0.770787,1.238302 c -2.190197,2.843043 -5.707145,2.817771 -8.103721,2.105958 -1.68476,-0.581245 -2.409222,-2.383944 -1.903786,-5.332283 a 18.170196,18.170196 0 0 1 0.627572,-2.463969 11.915504,11.915504 0 0 1 0.842385,-1.9922353 8.786052,8.786052 0 0 1 2.299705,-2.7882879 6.5074067,6.5074067 0 0 1 0.901346,-0.5770318 5.3828257,5.3828257 0 0 1 3.790722,-0.5475482 4.3172116,4.3172116 0 0 1 2.312341,1.3815078 4.6331051,4.6331051 0 0 1 0.720241,1.1540645 c 0.716028,1.5963152 0.770777,3.8791709 -0.26536,6.7769679 z M 45.931135,5.0627202 A 3.6222458,3.6222458 0 0 1 44.469602,6.6127039 8.5291253,8.5291253 0 0 1 42.898563,7.3876963 L 42.629,7.4929939 A 16.426464,16.426464 0 0 1 40.674668,8.0447543 C 37.953771,8.638634 35.460324,8.3143167 34.647424,7.0591667 A 1.6510701,1.6510701 0 0 1 34.424186,6.5621612 C 34.002994,4.9405747 35.965751,3.0030943 39.284734,2.3502474 l 0.450678,-0.080022 c 0.353807,-0.054759 0.716028,-0.096871 1.078249,-0.1221455 a 11.70912,11.70912 0 0 1 2.350252,0.054759 c 1.461532,0.1937483 2.615591,0.6991783 2.855678,1.5415602 a 1.9248446,1.9248446 0 0 1 -0.08841,1.3141172 z M 66.287317,41.546312 c -0.18954,1.773227 -1.436269,3.25581 -3.546433,4.022385 A 7.9689407,7.9689407 0 0 1 61.6163,45.884584 11.275293,11.275293 0 0 1 59.565096,46.12467 h -0.0337 q -0.488578,0 -1.010863,0 a 16.531761,16.531761 0 0 1 -2.244946,-0.26535 c -3.137878,-0.585469 -4.860548,-1.743741 -5.643962,-3.289507 a 6.0356723,6.0356723 0 0 1 -0.450678,-3.630668 c 0.421193,-3.108392 2.350252,-4.426725 6.128337,-4.338275 0.66127,0 1.368864,0.07161 2.139651,0.168477 a 13.629752,13.629752 0 0 1 2.333402,0.509641 11.831266,11.831266 0 0 1 1.747943,0.703395 h 0.02111 c 2.341817,1.166696 4.001324,3.074694 3.735964,5.559717 z"
     id="path104"
     style="stroke-width:0.421191" />
  <path
     class="cls-6"
     d="m 50.981222,65.785876 a 34.183891,34.183891 0 0 1 -3.609607,-0.299048 l -0.421192,-0.0674 c -0.5307,-0.07998 -1.04035,-0.181105 -1.537352,-0.290613 a 17.369932,17.369932 0 0 1 -4.018163,-1.389934 9.5526201,9.5526201 0 0 1 -3.97605,-3.516948 7.8215238,7.8215238 0 0 1 -1.031915,-4.852113 c 0,-0.130579 0,-0.252724 0.02954,-0.383293 a 6.3894731,6.3894731 0 0 1 0.421183,-1.583676 c -0.303251,0.04629 -0.619147,0.07998 -0.939256,0.109508 l -0.598096,0.04629 -0.581237,0.0337 c -0.303261,0 -0.610723,0 -0.92662,0 a 18.279706,18.279706 0 0 1 -6.317872,-1.002433 l -0.147418,-0.05471 h -0.0674 a 0.32010544,0.32010544 0 0 0 0,0.06323 11.51116,11.51116 0 0 1 -4.127671,8.002637 l -0.07998,0.05897 -0.130579,0.09267 c -0.214814,0.160045 -0.421193,0.315897 -0.657057,0.463315 a 12.416722,12.416722 0 0 1 -1.613163,0.842375 16.182173,16.182173 0 0 1 -3.693851,1.111947 v 0 a 18.477665,18.477665 0 0 1 -7.61092,-0.231652 25.625283,25.625283 0 0 0 3.59697,2.889376 28.287213,28.287213 0 0 0 3.59697,2.046982 l 0.610733,0.269572 c 0.509639,0.22744 1.031915,0.421182 1.562615,0.64442 l 0.311685,0.117923 a 38.117819,38.117819 0 0 0 8.710231,2.030152 c 0.707603,0.07998 1.427844,0.155832 2.160711,0.206379 0.577035,0.04212 1.166706,0.07166 1.76059,0.09683 0.711816,0.02527 1.436259,0.04212 2.169136,0.04212 0.732867,0 1.389934,0 2.072254,-0.03786 0.930832,-0.0337 1.8364,-0.09683 2.733534,-0.181115 a 42.87307,42.87307 0 0 0 5.302801,-0.796051 l 0.581247,-0.130569 a 33.236211,33.236211 0 0 0 6.242047,-2.105962 c 0.252724,-0.11372 0.501225,-0.231643 0.749726,-0.353787 0.248502,-0.122155 0.606511,-0.30327 0.905559,-0.463315 a 26.846738,26.846738 0 0 0 2.55663,-1.558413 c -0.922407,0.08841 -1.878512,0.130569 -2.847244,0.134781 z M 37.153508,68.59522 a 3.563279,3.563279 0 0 1 -1.491008,0.926619 8.4238274,8.4238274 0 0 1 -3.660163,0.315897 l -0.235865,-0.02527 a 10.56348,10.56348 0 0 1 -2.059627,-0.492791 6.2715395,6.2715395 0 0 1 -2.354464,-1.423632 4.8352769,4.8352769 0 0 1 -1.432047,-3.099977 5.1469585,5.1469585 0 0 1 0.109508,-1.469956 5.3027993,5.3027993 0 0 1 0.244299,-0.796051 C 27.29342,60.03239 31.088354,58.6888 34.516855,60.86636 l 0.09683,0.0674 a 6.9159623,6.9159623 0 0 1 0.770777,0.589671 7.7836165,7.7836165 0 0 1 1.179333,1.297265 7.421392,7.421392 0 0 1 1.048774,2.034355 c 0.45488,1.41942 0.370646,2.821981 -0.459103,3.740176 z"
     id="path105"
     style="stroke-width:0.421191" />
  <path
     class="cls-1"
     d="m 209.85039,29.466547 c 0,-1.263573 -0.61915,-1.78164 -1.75216,-1.78164 -1.13299,0 -1.72688,0.539126 -1.72688,1.78164 a 1.5710438,1.5710438 0 0 0 1.72688,1.684766 c 1.13301,0 1.75216,-0.648635 1.75216,-1.684766"
     id="path106"
     style="stroke-width:0.421191" />
  <path
     class="cls-1"
     d="m 210.28422,44.503074 a 1.2130311,1.2130311 0 0 0 0,-2.426052 h -0.64863 v -8.360654 a 1.3393886,1.3393886 0 0 0 -1.37309,-1.457322 h -2.18597 a 1.2088192,1.2088192 0 0 0 -1.21304,1.213031 1.1919716,1.1919716 0 0 0 1.21304,1.217243 h 0.6402 v 7.387702 h -0.64864 a 1.2088192,1.2088192 0 0 0 -1.21302,1.213021 1.1877596,1.1877596 0 0 0 1.21302,1.213031 z"
     id="path107"
     style="stroke-width:0.421191" />
  <path
     class="cls-1"
     d="m 109.04666,32.511761 h -0.61914 a 1.2130312,1.2130312 0 1 0 0,2.426062 h 0.61914 v 6.3642 c 0,2.131236 1.56263,3.668578 4.09819,3.668578 a 1.2635741,1.2635741 0 1 0 0,-2.527145 c -0.59388,0 -1.24251,-0.349585 -1.24251,-0.972954 v -6.532679 h 1.21724 a 1.2130312,1.2130312 0 1 0 0,-2.426062 h -1.21724 v -2.552419 c 0,-0.783417 -0.93504,-1.432051 -1.71425,-1.432051 -0.77921,0 -1.14143,0.648634 -1.14143,1.432051 z"
     id="path108"
     style="stroke-width:0.421191" />
  <metadata
     id="metadata108">
    <rdf:RDF>
      <cc:Work
         rdf:about="">
        <dc:title>ROS_Logo_RGB_Colour_AW</dc:title>
      </cc:Work>
    </rdf:RDF>
  </metadata>
</svg>
